<svg width="96" height="96" viewBox="0 0 96 96" fill="none" xmlns="http://www.w3.org/2000/svg">
<g clip-path="url(#clip0_40_6660)">
<path d="M0 24C0 10.7452 10.7452 0 24 0H72C85.2548 0 96 10.7452 96 24V72C96 85.2548 85.2548 96 72 96H24C10.7452 96 0 85.2548 0 72V24Z" fill="#7132F5"/>
<path fill-rule="evenodd" clip-rule="evenodd" d="M19.6802 51.087V63.5588C19.6802 65.8553 21.5142 67.7138 23.7696 67.7138C26.0273 67.7138 27.8701 65.8553 27.8701 63.5588V51.087C27.8701 48.787 29.6946 46.9253 31.9619 46.9253C34.2212 46.9253 36.0536 48.787 36.0536 51.087V63.5588C36.0536 65.8553 37.8877 67.7138 40.1454 67.7138C42.4112 67.7138 44.2443 65.8553 44.2443 63.5588V51.087C44.2443 48.787 46.0768 46.9253 48.3354 46.9253C50.6033 46.9253 52.4374 48.787 52.4374 51.087V63.5588C52.4374 65.8553 54.2706 67.7138 56.526 67.7138C58.7837 67.7138 60.6178 65.8553 60.6178 63.5588V51.087C60.6178 48.787 62.4511 46.9253 64.7184 46.9253C66.9768 46.9253 68.8102 48.787 68.8102 51.087V63.5588C68.8102 65.8553 70.644 67.7138 72.9082 67.7138C75.1666 67.7138 77 65.8553 77 63.5588V51.087C77 35.0124 64.1656 21.9784 48.3354 21.9784C32.5059 21.9784 19.6802 35.0124 19.6802 51.087Z" fill="white"/>
</g>
<defs>
<clipPath id="clip0_40_6660">
<rect width="96" height="96" fill="white"/>
</clipPath>
</defs>
</svg>
