<svg width="25" height="24" viewBox="0 0 25 24" fill="none" xmlns="http://www.w3.org/2000/svg">
<g id="crypto / algorand" clip-path="url(#clip0_2035_384)">
<path id="Vector" d="M12.5119 0.120117C5.86572 0.120117 0.619995 5.50826 0.619995 12.0002C0.619995 18.6345 6.00814 23.8802 12.5 23.8802C19.1344 23.8802 24.3801 18.492 24.3801 12.0002C24.3801 5.43705 19.0631 0.120117 12.5119 0.120117ZM5.55716 18.4446C5.60463 18.3022 5.60463 18.2072 5.67584 18.1597C8.14443 13.8397 10.613 9.54345 13.129 5.22343C13.2952 4.98607 13.3902 4.89113 13.6513 4.89113C14.2209 4.96233 14.7431 4.96233 15.3365 4.96233C15.4315 5.17596 15.5027 5.34211 15.5264 5.532C15.7638 6.38652 15.9774 7.24104 16.2385 8.0718C16.2385 8.23795 16.3334 8.2854 16.4996 8.2854H18.3985C18.3511 8.38037 18.3036 8.45157 18.2324 8.54652C17.8763 9.23486 17.4491 9.89949 17.0693 10.6116C16.9743 10.754 16.9743 10.8727 17.0218 11.0151C17.6627 13.3413 18.2324 15.7386 18.8732 18.0648C18.9445 18.1597 18.9445 18.2547 18.9682 18.3734C18.8732 18.4446 18.7783 18.4446 18.7071 18.4446H17.1405C16.9269 18.4446 16.8082 18.3734 16.7607 18.1597C16.4047 16.6881 15.9774 15.1452 15.5976 13.6498C15.5264 13.5549 15.5264 13.4599 15.5027 13.3413C15.1704 13.8397 14.9568 14.2432 14.6956 14.7417C14.031 15.9048 13.3902 16.9967 12.6781 18.1597C12.5831 18.3734 12.4882 18.4446 12.2745 18.4446H10.2095C10.257 18.3022 10.3282 18.2072 10.3282 18.1597C11.7523 15.6674 13.1765 13.2463 14.6007 10.754C14.6956 10.6116 14.6956 10.4454 14.6719 10.2318C14.4345 9.44851 14.2209 8.64146 14.031 7.81068C13.9598 7.90565 13.8886 8.02433 13.8411 8.0718C11.966 11.4424 10.0196 14.7892 8.04946 18.1597C7.93078 18.3734 7.83586 18.4446 7.57474 18.4446H5.84199H5.55716Z" fill="#00C3B4"/>
</g>
<defs>
<clipPath id="clip0_2035_384">
<rect width="24" height="24" fill="white" transform="translate(0.5)"/>
</clipPath>
</defs>
</svg>
