<svg width="24" height="24" viewBox="0 0 24 24" fill="none" xmlns="http://www.w3.org/2000/svg">
<g id="crypto / axs" clip-path="url(#clip0_2035_2588)">
<path id="Vector" d="M12.0119 23.8802C18.6343 23.8802 23.8801 18.492 23.8801 11.9883C23.8801 5.43708 18.5631 0.120117 12.0119 0.120117C5.36572 0.120117 0.119995 5.50826 0.119995 11.9883C0.119995 18.6345 5.50814 23.8802 12.0119 23.8802ZM1.82904 12.1782C1.71036 10.1843 10.4928 1.94784 12.0119 1.97157C13.5311 2.01905 22.3372 9.99446 22.266 12.2257C22.1711 14.4569 13.6972 22.3848 12.0594 22.4323C10.4216 22.4561 1.92398 14.172 1.82904 12.1782ZM6.55255 15.7624C6.57628 16.2134 6.86111 17.0679 7.83431 17.0679C8.83123 17.0679 13.2225 12.3918 15.2875 10.0419C15.6436 9.6384 16.3794 9.32983 16.3794 11.1575V14.0534C16.4269 14.5281 16.237 15.1927 15.0976 14.0534C13.9583 12.914 13.626 12.7004 13.3174 12.7004C13.3174 12.7004 13.0088 12.8191 13.0088 13.0564C13.0088 13.3175 14.4805 14.6705 14.4805 14.6705L15.6436 15.7624C16.3082 16.2371 17.6137 16.5219 17.6137 13.7922V9.66213C17.6612 8.4041 17.3526 6.2441 15.7622 7.8107L8.52266 15.0977C8.38024 15.3351 8.09541 15.5962 8.09541 14.6705V13.0564L9.92311 11.2762C9.92311 11.2762 10.6115 11.8933 10.92 11.9408C11.2286 12.012 11.4185 11.9408 11.5372 11.4661C11.6559 10.9676 7.52572 8.73641 7.52572 8.73641C7.21715 8.57025 6.55252 8.52278 6.55252 9.66213L6.55255 15.7624ZM7.40704 11.5136V9.92323L8.76002 10.5404L7.40704 11.5136Z" fill="#005ADD"/>
</g>
<defs>
<clipPath id="clip0_2035_2588">
<rect width="24" height="24" fill="white"/>
</clipPath>
</defs>
</svg>
