<svg width="24" height="24" viewBox="0 0 24 24" fill="none" xmlns="http://www.w3.org/2000/svg">
<g clip-path="url(#clip0_30_1158)">
<path d="M0.119995 12.0119V11.9882C0.119995 14.1482 0.665923 16.142 1.73407 17.9934C2.80221 19.7737 4.22637 21.1979 6.00662 22.266C7.85805 23.3341 9.8519 23.8801 12.0119 23.8801C14.1482 23.8801 16.142 23.3341 17.9935 22.266C19.7737 21.1979 21.1979 19.7737 22.266 17.9935C23.3341 16.142 23.8801 14.1482 23.8801 11.9882C23.8801 9.8519 23.3341 7.85803 22.266 6.00662C21.1979 4.22637 19.7737 2.80221 17.9935 1.73407C16.142 0.665923 14.1482 0.119995 12.0119 0.119995C9.8519 0.119995 7.85805 0.665923 6.00662 1.73407C4.22637 2.80221 2.80221 4.22637 1.73407 6.00662C0.665923 7.85805 0.119995 9.8519 0.119995 12.0119ZM17.8036 12.7477C18.5157 14.4568 17.6849 16.2845 15.8334 16.8304C15.2638 16.9965 14.7416 17.0203 13.982 17.0915V19.2752H12.6291V17.1152H11.6084V19.2752H10.2317V17.1152H7.57319L7.85805 15.4774H8.64134C9.02112 15.4774 9.30597 15.3825 9.30597 14.9077V9.25848C9.30597 8.68881 9.04485 8.42772 8.30901 8.42772H7.57319V7.051H10.2317V4.86724H11.6084V7.051H12.6291V4.86724H13.982V7.051C14.528 7.07476 14.9315 7.12221 15.335 7.21715C17.5662 7.73937 17.9935 10.1367 16.0708 11.5372C16.9016 11.7745 17.4 12.0119 17.8036 12.7477ZM11.6084 8.52263V11.2049H11.9882C13.4123 11.2049 14.7891 11.0625 14.7416 9.82816C14.7416 8.52266 13.175 8.52266 11.6084 8.52266V8.52263ZM11.6084 12.5578V15.5011C13.531 15.5011 15.3113 15.3824 15.3113 13.982C15.3113 13.2461 14.8603 12.9376 14.0295 12.6765C13.2462 12.4391 12.724 12.5341 11.6084 12.5578H11.6084Z" fill="#F7931A"/>
</g>
<defs>
<clipPath id="clip0_30_1158">
<rect width="24" height="24" fill="white"/>
</clipPath>
</defs>
</svg>
