<svg width="24" height="24" viewBox="0 0 24 24" fill="none" xmlns="http://www.w3.org/2000/svg">
<g id="crypto / cosmos" clip-path="url(#clip0_30_1262)">
<path id="Vector" d="M12.0119 0.119995C5.36572 0.119995 0.119995 5.50814 0.119995 12C0.119995 18.6344 5.50814 23.8801 12 23.8801C18.6344 23.8801 23.8801 18.4919 23.8801 12C23.8801 5.43693 18.5631 0.119995 12.0119 0.119995ZM3.44308 7.62067C3.03957 6.55255 4.5587 6.4576 5.88792 6.88485C7.24089 7.26463 8.57016 7.78684 9.97056 8.23783C10.0655 7.45452 10.1605 6.67123 10.3029 5.88792C10.469 5.08089 10.7064 4.2264 10.9438 3.39561C11.5372 1.63912 12.4866 1.54418 13.1987 3.46682C13.626 4.62991 14.1719 7.38331 14.1719 8.35651C14.7416 8.11915 15.335 7.85803 15.8809 7.62067C15.9996 7.5732 16.0946 7.43078 16.1183 7.3121C16.3082 6.83738 16.7829 6.67123 17.2102 6.93232C17.3763 7.02727 17.5425 7.02727 17.7324 7.00353C18.8717 6.74243 19.3702 6.55255 20.1535 6.7187C20.6994 6.83738 20.8893 7.19342 20.6757 7.62067C20.0585 8.94991 18.7055 9.94684 16.7829 11.6084C16.6168 11.7745 16.4743 11.8695 16.2844 12.0356C16.4031 12.1068 16.5693 12.2493 16.7829 12.3679C17.9935 13.3174 19.204 14.2431 20.1535 15.4774C20.3908 15.786 20.5807 16.0471 20.6757 16.3794C20.8656 16.8066 20.6757 17.1389 20.1535 17.2339C19.5363 17.4238 18.8242 17.3051 18.2308 17.0677C17.0677 16.7592 15.8809 16.2607 14.6941 15.8572C14.5517 15.8097 14.3618 15.7148 14.2194 15.6673C14.0295 16.4743 14.0057 17.2102 13.8396 17.9697C13.6497 18.8242 13.4598 19.655 13.1987 20.4858C13.1275 20.7943 12.9614 21.0792 12.8189 21.3878C12.2967 22.1236 11.7983 22.1236 11.2761 21.3403C11.0387 20.7469 10.9438 20.4858 10.564 19.5126C10.5402 19.3464 10.3741 19.2277 10.3029 19.1328C9.92311 18.8242 9.87564 18.4445 10.0655 18.0647C10.1605 17.8748 10.1842 17.8273 10.1842 17.7086C10.1605 17.044 10.0655 16.3794 9.97058 15.6673C8.73628 15.9047 5.67429 17.6137 3.98901 17.3051C3.44308 17.1389 3.25317 16.8066 3.46682 16.2607C3.63297 15.8572 3.87033 15.5249 4.1789 15.1451C5.10463 14.1007 6.24398 13.1513 7.45452 12.2967C7.59696 12.2255 7.69187 12.1068 7.83431 12.0356C7.3121 11.5847 6.74243 11.0862 6.14903 10.7301C6.10156 10.6827 5.95915 10.6352 5.88792 10.6352C5.31825 10.6352 5.05716 10.3741 5.00968 9.89935C4.98592 9.75696 4.93848 9.5908 4.8198 9.49586C4.46376 9.11606 4.15516 8.76002 3.8466 8.35651C3.633 8.11915 3.51429 7.92926 3.44308 7.62067ZM3.79912 16.6642C4.62991 17.5187 8.38024 15.691 9.92311 15.1214C9.97058 13.3174 9.99432 13.4123 8.57013 12.4391C8.42772 12.3679 8.23783 12.4154 8.16662 12.4391C7.71564 12.6765 7.33584 12.9614 7.02727 13.2462C6.14904 14.0532 5.24704 14.884 4.36879 15.7148C4.15519 15.9759 3.68047 16.5455 3.79912 16.6642V16.6642ZM3.79912 7.19342C3.8466 7.66814 4.5587 8.57013 5.05716 9.04485C5.19957 9.18727 5.31828 9.28221 5.57935 9.18727C6.00662 9.11606 6.50507 9.47212 6.4576 9.8519C6.36266 10.3029 6.64749 10.4453 6.90859 10.6352C7.21716 10.8725 7.50199 11.0625 7.78684 11.2761C8.35651 11.6796 8.35651 11.6796 8.85496 11.3236C9.1398 11.2049 9.37718 11.015 9.5908 10.8251C9.70948 10.8013 9.8044 10.6352 9.8044 10.5402C9.87564 9.97058 9.92311 9.49586 9.92311 8.92617C8.35651 8.21409 6.74243 7.45452 5.00968 7.19342C4.67738 7.12221 3.87033 7.00353 3.79912 7.19342ZM8.76002 12.0357C9.16353 12.2255 9.44839 12.4154 9.80443 12.6291V11.3947C9.44839 11.5847 9.16353 11.7745 8.76002 12.0356V12.0357ZM10.3029 11.9644C10.3741 13.0088 10.3504 13.0088 11.2049 13.5073C12.0831 13.982 12.0356 13.9345 12.9376 13.5073C13.626 13.1513 13.626 12.8189 13.7209 12.1068C13.7209 10.9913 13.7447 11.015 12.9614 10.5402C12.2967 10.0418 11.7983 10.0893 11.1337 10.5402C10.4928 10.8725 10.2791 11.2761 10.3029 11.9644ZM10.3741 14.8365C10.8251 14.6466 11.1337 14.4568 11.4897 14.2669C11.0862 14.0532 10.8251 13.8633 10.3741 13.626V14.8365ZM10.3741 10.3504C10.8251 10.1367 11.1337 9.94684 11.4897 9.68575C11.0862 9.49586 10.8251 9.32971 10.3741 9.1398V10.3504ZM10.469 15.4062C10.5402 16.0946 10.6827 16.8066 10.7539 17.5187C10.7539 17.6137 10.8963 17.7324 11.015 17.8273C11.371 18.1121 11.5372 18.5157 11.2286 18.8717C11.015 19.1328 11.0625 19.3227 11.1337 19.6313C11.2761 20.0348 11.371 20.3908 11.6084 20.7943C11.7271 21.1741 11.8457 21.4352 12.1781 21.4352C12.7715 21.3166 13.3649 17.5187 13.6497 15.4062C13.1513 15.1214 12.7477 14.884 12.2255 14.6941C12.1068 14.6466 11.9882 14.6466 11.8932 14.6466C11.4185 14.884 10.9438 15.1214 10.4691 15.4062H10.469ZM10.469 8.6176C10.9438 8.85496 11.4185 9.11608 11.8932 9.32968C11.9882 9.40092 12.1068 9.40092 12.2255 9.32968C12.7477 9.11608 13.1513 8.85496 13.6497 8.6176C13.626 8.04794 13.5548 7.50199 13.4598 7.00353C13.3174 5.55561 12.6291 2.6123 12.1781 2.54109C11.0387 2.54109 10.7301 6.74243 10.469 8.6176ZM10.8725 12.0356C10.8725 11.3236 11.371 10.8013 12.0356 10.8013C12.7477 10.8013 13.2699 11.3236 13.2699 11.9644C13.2699 12.6291 12.7477 13.1987 12.0831 13.1987C11.371 13.1987 10.8725 12.6291 10.8725 12.0356ZM12.6291 14.2668C13.0088 14.4568 13.3411 14.6466 13.6497 14.7653C13.7209 14.8128 13.7209 14.1719 13.7209 13.626C13.3649 13.8633 13.0088 14.0532 12.6291 14.2668ZM12.6291 9.75696C13.0088 9.94684 13.3649 10.1367 13.7447 10.3741C13.7447 9.94684 13.7209 9.5908 13.7209 9.1398C13.3411 9.32971 13.0088 9.56707 12.6291 9.75696ZM14.2194 15.0739C15.6673 15.7148 17.1864 16.4031 18.753 16.7592C19.204 16.8541 19.7262 16.8779 20.2721 16.7592C20.1535 16.1895 19.8686 15.8572 19.5601 15.5249C18.7055 14.4568 17.6137 13.626 16.4981 12.8189C15.8334 12.2967 15.8334 12.2967 15.0976 12.7952C14.884 12.9376 14.6941 13.0088 14.5042 13.1513C14.3855 13.2462 14.3143 13.3411 14.3143 13.4361C14.2669 13.982 14.2669 14.528 14.2194 15.0739ZM14.2669 8.92617C14.2194 10.6352 14.2194 10.6352 15.4774 11.466C15.7148 11.6084 15.8809 11.6796 16.0946 11.466C16.7829 10.92 17.4475 10.4928 18.1121 9.89937C18.753 9.28221 19.3464 8.73628 19.9161 8.04794C20.0585 7.85805 20.2484 7.59693 20.3434 7.26463C19.6787 7.00353 18.7055 7.19342 17.6612 7.50199C17.6137 7.5732 17.5662 7.66816 17.5187 7.78684C17.2102 8.2378 16.9016 8.35651 16.4031 8.16662C16.3082 8.11915 16.1895 8.04794 16.0946 8.11915C15.4537 8.35651 14.8602 8.66508 14.2669 8.92617ZM14.3618 12.6291C14.6466 12.4154 14.9315 12.2255 15.335 12.0356C14.9552 11.7745 14.6466 11.5847 14.3618 11.3948V12.6291Z" fill="#1D1E35"/>
</g>
<defs>
<clipPath id="clip0_30_1262">
<rect width="24" height="24" fill="white"/>
</clipPath>
</defs>
</svg>
