<svg width="24" height="24" viewBox="0 0 24 24" fill="none" xmlns="http://www.w3.org/2000/svg">
<g id="crypto / dash" clip-path="url(#clip0_2035_204)">
<path id="Vector" d="M17.9935 1.73419C16.142 0.658917 14.141 0.120117 11.9882 0.120117C9.8519 0.120117 7.85803 0.658917 6.00662 1.73419C4.21927 2.79521 2.79508 4.21939 1.73407 6.00674C0.658819 7.85817 0.119995 9.85677 0.119995 12.0002C0.119995 14.1436 0.658795 16.1422 1.73407 17.9936C2.79508 19.7809 4.21927 21.2051 6.00662 22.2661C7.85805 23.3414 9.85665 23.8802 12 23.8802C14.1434 23.8802 16.142 23.3414 17.9935 22.2661C19.7808 21.2051 21.205 19.7809 22.266 17.9936C23.3413 16.1422 23.8801 14.1436 23.8801 12.0002C23.8801 9.85677 23.3413 7.85817 22.266 6.00674C21.205 4.21939 19.7808 2.79521 17.9935 1.73419ZM5.7455 12.9377C5.86418 12.463 6.00662 12.012 6.17277 11.5136C6.41013 10.9439 6.76617 10.9914 7.19342 10.9914H11.822C11.822 10.9914 12.0594 10.9914 12.0119 11.1338C11.8932 11.5847 11.822 11.9408 11.6321 12.3918C11.4185 12.9377 11.2286 13.0564 10.6827 13.0564H5.95912C5.95912 13.0564 5.67429 13.0564 5.7455 12.9377ZM7.64443 16.7593C7.71564 16.2846 7.85803 15.8099 7.92926 15.3588C7.92926 15.074 8.07167 15.0265 8.30904 15.0265C9.47212 15.074 10.6827 15.074 11.822 15.074C16.3319 15.074 17.5425 9.04497 13.2225 9.04497H8.99736C9.13977 8.38037 9.21098 7.78697 9.35342 7.16981C9.40089 6.97992 9.4721 6.97992 9.59078 6.97992C14.5991 6.97992 17.9934 7.02739 18.2545 10.0656C18.3257 11.7272 17.9934 13.3413 17.1152 14.7417C16.237 16.2134 14.9077 16.9729 13.2224 17.0204C11.4897 17.0916 9.66199 17.0916 7.92924 17.0916C7.6444 17.0916 7.57317 17.0204 7.6444 16.7593H7.64443Z" fill="#3B9AF7"/>
</g>
<defs>
<clipPath id="clip0_2035_204">
<rect width="24" height="24" fill="white"/>
</clipPath>
</defs>
</svg>
