<svg width="24" height="24" viewBox="0 0 24 24" fill="none" xmlns="http://www.w3.org/2000/svg">
<g id="crypto / dogecoin" clip-path="url(#clip0_2035_3307)">
<path id="Vector" d="M13.599 8.05579C14.3097 8.29267 14.9019 8.69539 15.3283 9.24024C15.9205 9.97459 16.2048 10.9458 16.2048 12.154C16.2048 13.8359 15.6362 14.9966 14.5229 15.6599C13.907 15.9679 13.22 16.1337 12.3909 16.1337H10.5668V12.7225H13.2911V11.2775H10.5668V7.8426H12.2961C12.7225 7.8426 13.1489 7.91363 13.599 8.05579ZM0.119995 12C0.119995 9.84432 0.657739 7.8426 1.73085 5.99486C2.78973 4.21108 4.21108 2.78973 5.99486 1.73085C7.8426 0.657739 9.83956 0.119995 11.9881 0.119995C14.1509 0.119995 16.1574 0.657739 18.0051 1.73085C19.7889 2.78973 21.2031 4.21108 22.2455 5.99486C23.3351 7.8426 23.88 9.84429 23.88 12C23.88 14.1557 23.3351 16.1574 22.2455 18.0051C21.2031 19.7889 19.7889 21.2031 18.0051 22.2455C16.1574 23.3351 14.1557 23.88 12 23.88C9.84432 23.88 7.8426 23.3351 5.99486 22.2455C4.21108 21.2031 2.78973 19.7889 1.73085 18.0051C0.657739 16.1574 0.119995 14.1557 0.119995 12ZM6.53971 12.7225H8.07947V18.5737H12.4856C12.9357 18.621 13.4806 18.5737 14.0728 18.4552C15.3046 18.1947 16.2995 17.6735 17.0576 16.8917C18.1473 15.7784 18.6921 14.1912 18.6921 12.1066C18.6921 10.093 18.171 8.50588 17.1523 7.36881C16.418 6.53971 15.423 5.97117 14.1438 5.6632C13.4806 5.49736 12.7462 5.42632 11.9171 5.42632H8.07947V11.2775H6.53971V12.7225Z" fill="#C2A633"/>
</g>
<defs>
<clipPath id="clip0_2035_3307">
<rect width="24" height="24" fill="white"/>
</clipPath>
</defs>
</svg>
