<svg width="24" height="24" viewBox="0 0 24 24" fill="none" xmlns="http://www.w3.org/2000/svg">
<g clip-path="url(#clip0_30_1263)">
<path d="M17.9935 1.73407C19.7808 2.79508 21.205 4.21927 22.266 6.00662C23.3413 7.85805 23.8801 9.85665 23.8801 12C23.8801 14.1434 23.3413 16.142 22.266 17.9935C21.205 19.7808 19.7808 21.205 17.9935 22.266C16.142 23.3413 14.1434 23.8801 12 23.8801C9.85665 23.8801 7.85805 23.3413 6.00662 22.266C4.21927 21.205 2.79508 19.7808 1.73407 17.9935C0.658819 16.142 0.119995 14.1434 0.119995 12C0.119995 9.85665 0.658795 7.85805 1.73407 6.00662C2.79508 4.21927 4.21927 2.79508 6.00662 1.73407C7.85805 0.658795 9.85903 0.119995 12.0119 0.119995C14.1482 0.119995 16.142 0.658795 17.9935 1.73407ZM7.21715 12.2255L12.0594 14.9077L16.7592 12.273L12.0594 10.1842L7.21715 12.2255ZM7.38331 11.1811L12.0356 9.211L16.5455 11.2286L12.0356 4.13143L7.38331 11.1811ZM7.40707 13.3411L12.0831 19.8686L16.7592 13.3411L12.0356 16.0234L7.40707 13.3411Z" fill="#19D05F"/>
</g>
<defs>
<clipPath id="clip0_30_1263">
<rect width="24" height="24" fill="white"/>
</clipPath>
</defs>
</svg>
