<svg width="24" height="24" viewBox="0 0 24 24" fill="none" xmlns="http://www.w3.org/2000/svg">
<g id="crypto / kusama" clip-path="url(#clip0_2035_3015)">
<path id="Vector" d="M12.0119 0.120117C5.36572 0.120117 0.119995 5.50826 0.119995 12.0002C0.119995 18.6345 5.50814 23.8802 12 23.8802C18.6344 23.8802 23.8801 18.492 23.8801 12.0002C23.8801 5.43705 18.5631 0.120117 12.0119 0.120117ZM3.34814 16.8542V16.7593C3.56176 16.5694 3.70418 16.4033 4.01275 16.2134C3.8466 16.2134 3.70418 16.2134 3.56179 16.1184C5.31825 15.2165 6.97979 14.3857 8.73628 13.5074C8.30904 13.5074 8.00044 13.4125 7.71563 13.4125V13.3413C8.45145 12.8903 9.09232 12.463 9.82816 12.0595C11.371 11.0863 12.9851 10.0894 14.5517 9.18744C15.5723 8.68896 16.4031 8.02435 17.2576 7.45466C18.2071 6.71884 18.9429 6.67137 19.8686 7.45466C20.2484 7.76325 20.557 8.02435 20.9605 8.33292C20.7706 8.38039 20.6045 8.47533 20.462 8.54654C19.4651 8.83137 19.0853 9.56721 18.7055 10.4454C18.5869 10.9677 18.3495 11.4424 18.0647 11.9646C17.7561 12.5342 17.2576 12.8903 16.6642 13.1989C16.0234 13.5549 15.2875 13.9347 14.5517 14.2907C13.8396 14.7417 13.7684 15.525 14.1956 16.1184C14.5517 16.6169 15.0264 17.0441 15.6673 17.3052C15.786 17.3052 15.9521 17.4477 16.1183 17.4951H13.982C14.077 17.4477 14.1956 17.3052 14.3381 17.1391C14.077 16.9255 13.8396 16.6881 13.5548 16.4745C13.1987 16.2609 12.9851 15.9048 12.8427 15.525C12.8427 15.3114 12.6765 15.169 12.4629 15.2165H11.5847V15.1215C11.7271 15.1215 11.9644 15.0266 12.1068 14.9554V14.8129C11.5847 14.8604 11.0625 14.8604 10.564 14.9553C8.68881 15.3114 6.86112 15.9523 4.93848 16.6169C4.44 16.7593 3.94154 16.7593 3.34814 16.8542Z" fill="#000001"/>
</g>
<defs>
<clipPath id="clip0_2035_3015">
<rect width="24" height="24" fill="white"/>
</clipPath>
</defs>
</svg>
