<svg width="24" height="24" viewBox="0 0 24 24" fill="none" xmlns="http://www.w3.org/2000/svg">
<g id="crypto / polkadot" clip-path="url(#clip0_2035_3277)">
<path id="Vector" d="M12.012 0.119995C5.3664 0.119995 0.119995 5.508 0.119995 11.988C0.119995 18.564 5.436 23.88 11.988 23.88C18.6336 23.88 23.88 18.492 23.88 11.988C23.88 5.3664 18.492 0.119995 12.012 0.119995ZM16.7328 5.3568C17.676 4.812 19.1976 5.6856 20.1336 7.30559C21.0696 8.9256 21.0624 10.68 20.1192 11.2248C19.176 11.7696 17.6544 10.896 16.7184 9.276C15.7848 7.656 15.792 5.9016 16.7328 5.3568ZM7.26719 18.6432C6.324 19.188 4.8024 18.3144 3.8664 16.6944C2.9304 15.0744 2.9376 13.32 3.8808 12.7752C4.824 12.2304 6.34559 13.104 7.2816 14.724C8.21519 16.344 8.20799 18.0984 7.26719 18.6432ZM7.27919 9.27359C6.34319 10.8936 4.8216 11.7648 3.8784 11.2224C2.9352 10.68 2.9304 8.92319 3.864 7.30319C4.79999 5.68319 6.3216 4.812 7.2648 5.3544C8.208 5.9016 8.21519 7.65599 7.27919 9.27359ZM12 21.3912C10.1304 21.3912 8.6136 20.508 8.6136 19.4208C8.6136 18.3336 10.1304 17.4504 12 17.4504C13.8696 17.4504 15.3864 18.3336 15.3864 19.4208C15.3864 20.5104 13.8696 21.3912 12 21.3912ZM12 6.54959C10.1304 6.54959 8.6136 5.6664 8.6136 4.5792C8.6136 3.492 10.1304 2.6088 12 2.6088C13.8696 2.6088 15.3864 3.492 15.3864 4.5792C15.3864 5.6664 13.8696 6.54959 12 6.54959ZM20.1336 16.6968C19.1976 18.3168 17.676 19.188 16.7328 18.6456C15.7896 18.1032 15.7848 16.3464 16.7184 14.7264C17.652 13.1064 19.176 12.2352 20.1192 12.7776C21.0624 13.3224 21.0696 15.0768 20.1336 16.6968Z" fill="#E6007A"/>
</g>
<defs>
<clipPath id="clip0_2035_3277">
<rect width="24" height="24" fill="white"/>
</clipPath>
</defs>
</svg>
