<svg width="24" height="24" viewBox="0 0 24 24" fill="none" xmlns="http://www.w3.org/2000/svg">
<g id="crypto / synthetix" clip-path="url(#clip0_2035_167)">
<path id="Vector" d="M12.0119 0.120117C18.5631 0.120117 23.8801 5.43708 23.8801 12.0002C23.8801 18.492 18.6343 23.8802 12 23.8802C5.50814 23.8802 0.119995 18.6345 0.119995 12.0002C0.119995 5.50826 5.36572 0.120117 12.0119 0.120117ZM6.41016 8.2854C6.1728 10.3505 7.38336 12.4156 9.68577 13.009C10.564 13.1988 12.3205 13.1988 13.7447 13.1988C15.4537 13.1988 16.4506 14.267 16.4506 15.6437C16.4506 17.1154 15.6436 18.2784 13.7447 18.2784C9.49588 18.2784 7.59698 18.1123 7.16971 18.2784C6.03038 18.8718 6.26774 20.1773 7.38333 20.1773C9.68577 20.1773 11.8932 20.2011 14.1482 20.2011C17.3051 20.0824 19.1566 16.9017 18.0647 14.0533C17.3051 11.656 14.2906 11.2287 10.6827 11.2287C9.47212 11.2287 8.47521 10.3505 8.47521 9.09245C8.47521 7.64453 8.83125 6.43397 10.113 6.19661C12.6291 6.19661 15.6911 6.12542 17.8511 6.19661C17.946 6.05421 17.9935 5.98301 18.0647 5.81683C18.6106 4.79618 18.0647 4.17902 17.3051 4.17902H10.4453C8.23783 4.36893 6.52881 6.03048 6.41013 8.28542L6.41016 8.2854ZM7.4308 17.6613C9.18729 17.8512 9.47215 17.685 9.68577 17.3527C10.4453 16.2608 11.2998 15.0265 12.1543 13.7685C12.3205 13.5549 10.6827 13.4125 10.4453 13.6498C9.47212 14.8604 8.30906 16.3083 7.4308 17.6613ZM12.5341 10.7065C14.433 10.8015 14.5992 11.1101 15.3825 9.85202C16.4031 8.4041 16.9016 7.62079 17.59 6.57641L15.4062 6.5052C14.3381 8.00059 13.4123 9.23484 12.5341 10.7065Z" fill="#4525D0"/>
</g>
<defs>
<clipPath id="clip0_2035_167">
<rect width="24" height="24" fill="white"/>
</clipPath>
</defs>
</svg>
