<svg width="24" height="24" viewBox="0 0 24 24" fill="none" xmlns="http://www.w3.org/2000/svg">
<g id="crypto / tezos" clip-path="url(#clip0_2035_3266)">
<path id="Vector" d="M0.119995 12.012C0.119995 5.41332 5.43696 0.120117 12.0119 0.120117C18.5631 0.120117 23.8801 5.46079 23.8801 11.9883C23.8801 18.587 18.5394 23.8802 12.0119 23.8802C5.41319 23.8802 0.119995 18.5395 0.119995 12.012ZM5.69803 6.90871C5.79297 7.31222 5.79297 7.54958 5.79297 7.95312H8.38024V12.9615C8.38024 14.172 8.85496 14.9553 9.8044 15.1927C10.9675 15.5013 12.1781 15.6437 13.0088 14.6468C13.2699 14.4806 13.4361 14.2432 13.4836 13.9347C13.4836 13.7922 13.4361 13.5549 13.3411 13.1514C12.8189 13.6024 12.4866 14.0059 12.0831 14.2432C11.2049 14.7892 10.3504 14.3857 10.2791 13.365C10.1842 11.5373 10.2791 9.75708 10.2791 7.95312H15.4062C14.0532 9.66213 12.8189 11.3237 11.5372 12.914L11.7745 13.1514C12.0831 12.9615 12.3205 12.914 12.6291 12.7716C14.1244 12.1307 15.5486 12.6767 15.8809 14.2432C16.1183 15.0977 16.1183 16.0235 15.9284 16.8542C15.5486 18.9668 13.7447 19.6789 11.917 18.5158C11.9882 18.3259 12.1781 18.1835 12.2255 18.0411C12.5579 17.5426 12.5579 17.0679 12.2255 16.6169C11.8457 16.1422 11.2998 16.1422 10.8014 16.3558C10.2791 16.6169 10.1842 17.0679 10.1842 17.5426C10.3504 18.3259 10.7539 18.9668 11.3948 19.4415C13.2699 20.7707 16.7117 19.7501 17.59 17.6376C18.6106 15.1927 17.5187 12.5105 15.2875 11.7035C14.8365 11.5373 14.3618 11.5373 13.8871 11.5136C15.1451 10.1606 16.4031 8.87885 17.6849 7.54958C17.4475 7.07486 17.044 6.90871 16.4031 6.90871H10.1842V5.55573C10.1842 3.7043 10.1367 3.60936 8.2378 3.7043C8.07168 3.7043 7.88179 3.7043 7.59696 3.77551C8.52266 4.72495 8.47519 5.81683 8.33277 6.90871H5.69803Z" fill="#2C7DF7"/>
</g>
<defs>
<clipPath id="clip0_2035_3266">
<rect width="24" height="24" fill="white"/>
</clipPath>
</defs>
</svg>
