<svg width="25" height="24" viewBox="0 0 25 24" fill="none" xmlns="http://www.w3.org/2000/svg">
<g id="crypto / tron" clip-path="url(#clip0_2035_352)">
<path id="Vector" d="M0.619995 12.0002C0.622371 9.85202 1.1612 7.8558 2.23407 6.00674C3.29508 4.21939 4.71927 2.79521 6.50662 1.73419C8.35805 0.658917 10.3567 0.120117 12.5 0.120117C14.6434 0.120117 16.642 0.658917 18.4935 1.73419C20.2808 2.79521 21.705 4.21939 22.766 6.00674C23.8413 7.85817 24.3801 9.85677 24.3801 12.0002C24.3801 14.1436 23.8413 16.1422 22.766 17.9936C21.705 19.7809 20.2808 21.2051 18.4935 22.2661C16.642 23.3414 14.6434 23.8802 12.5 23.8802C10.3567 23.8802 8.35805 23.3414 6.50662 22.2661C4.71927 21.2051 3.29508 19.7809 2.23407 17.9936C1.1612 16.1445 0.622371 14.1483 0.619995 12.0002ZM6.69651 6.19663L11.1827 18.7057C11.3251 19.1329 11.4675 19.5602 11.6337 19.9637C11.6811 20.0824 11.7286 20.1773 11.7998 20.2485C12.0609 20.3909 12.3695 20.3197 12.5119 20.0824V20.1061L19.253 10.2081C19.4429 9.94694 19.3005 9.61466 19.0869 9.47222C18.9682 9.32983 18.6121 9.09245 18.5172 9.02126C18.1137 8.71267 17.6627 8.4041 17.2117 8.14301C17.1168 8.04806 16.9981 8.02433 16.9031 7.97685L13.6275 7.19354C13.0578 7.05113 12.4644 6.90871 11.8948 6.79003C11.0165 6.60014 10.1383 6.33905 9.26004 6.12542C9.07013 6.07795 8.88024 5.98301 8.66662 5.98301C8.64286 5.98301 7.31364 5.62694 7.14749 5.62694C7.00508 5.62694 6.93387 5.67441 6.79145 5.81683C6.67277 5.95925 6.64903 5.98301 6.69651 6.19663ZM8.00199 7.64455L9.59232 9.54343C10.3282 10.4217 11.0402 11.2999 11.7523 12.1782C11.8473 12.2969 11.9185 12.3918 12.0134 12.5105C12.1321 12.6529 12.2745 12.7953 12.3932 12.9615L12.3457 13.5074C12.322 13.6973 12.2983 14.1008 11.9897 16.6881C11.9185 17.5663 11.8236 18.5158 11.7998 18.5158C11.1589 16.4745 10.4468 14.5043 9.73474 12.5105C9.14134 10.8727 8.57168 9.2586 8.00199 7.64455ZM8.35805 6.88497C10.8978 7.52585 13.4851 8.16674 16.0961 8.76014L12.8205 12.2731C12.4644 11.8459 12.0846 11.3949 11.7286 10.9439C10.6367 9.56719 9.49738 8.23795 8.35805 6.885V6.88497ZM12.6068 18.2784C12.773 16.5931 12.9629 14.8841 13.1528 13.1988L17.7814 10.754C16.0723 13.2701 14.3396 15.7861 12.6068 18.2784ZM14.4345 11.6797C15.2179 10.7777 16.0486 9.92323 16.8794 9.06871L17.9475 9.82829L14.4345 11.6797Z" fill="#C31929"/>
</g>
<defs>
<clipPath id="clip0_2035_352">
<rect width="24" height="24" fill="white" transform="translate(0.5)"/>
</clipPath>
</defs>
</svg>
