<svg width="24" height="24" viewBox="0 0 24 24" fill="none" xmlns="http://www.w3.org/2000/svg">
<g id="crypto / aave" clip-path="url(#clip0_2035_3258)">
<path id="Vector" d="M12.0119 0.120117C5.36572 0.120117 0.119995 5.50826 0.119995 12.0002C0.119995 18.6345 5.50814 23.8802 12 23.8802C18.6344 23.8802 23.8801 18.492 23.8801 12.0002C23.8801 5.43705 18.5631 0.120117 12.0119 0.120117ZM6.19651 19.489C6.14903 19.3466 6.19651 19.1804 6.19651 18.9668C6.19651 15.7624 6.14903 12.5105 6.19651 9.30609C6.19651 6.45773 7.92926 4.22649 10.6352 3.49068C13.6972 2.63616 17.044 4.72497 17.6137 7.85817C17.7324 8.33289 17.7798 8.87882 17.7798 9.30609V19.2991C17.7798 19.8688 17.4475 20.1773 17.044 20.1773C16.688 20.1773 16.3557 19.8688 16.3557 19.3466C16.3319 18.7769 16.3557 18.1835 16.3319 17.6375C16.3319 17.2815 16.1183 17.0916 15.7622 17.0916C15.4774 17.0916 15.2875 17.2815 15.2875 17.6376V18.1123C15.2875 18.3259 15.2875 18.4683 15.2163 18.6107C15.0739 19.0142 14.8603 19.1804 14.4805 19.1804C14.0532 19.1567 13.9108 18.9668 13.8396 18.5158C13.8396 18.2547 13.8396 17.9224 13.8159 17.685C13.8159 17.3527 13.626 17.0679 13.2225 17.0916C12.9376 17.0916 12.7715 17.2815 12.7003 17.6376C12.7003 17.7088 12.7003 17.78 12.6765 17.9224C12.5816 18.3259 12.3442 18.5395 11.9882 18.5395C11.6084 18.5395 11.3948 18.3259 11.2523 17.9224C11.2523 17.7088 11.2523 17.6376 11.2049 17.4951C11.1574 17.234 10.9438 17.1391 10.6589 17.1391C10.4216 17.1391 10.2554 17.2815 10.2317 17.5663C10.2317 17.7088 10.2317 17.9224 10.1367 18.136C10.1367 18.3734 10.0893 18.6107 10.0418 18.8006C9.87564 19.1567 9.61454 19.1804 9.32971 19.1804C8.99738 19.1567 8.78376 18.943 8.78376 18.6107C8.76002 18.3259 8.78376 17.9699 8.76002 17.685C8.71255 17.2815 8.42772 17.0916 8.14288 17.1391C7.81058 17.234 7.66816 17.4239 7.59696 17.7088V19.489C7.52572 19.8925 7.28836 20.1773 6.90859 20.1773C6.55255 20.2485 6.26771 19.8925 6.19651 19.489ZM8.99736 8.76012C8.99736 9.30607 9.40089 9.852 9.87561 9.852C10.3741 9.852 10.7776 9.30607 10.7776 8.6652C10.7776 8.07177 10.4215 7.71573 9.85188 7.71573C9.32968 7.71573 8.99736 8.11925 8.99736 8.76012ZM11.2049 10.8014C11.3473 11.2999 11.6084 11.5135 12.0831 11.5135C12.4629 11.4661 12.6765 11.2999 12.7715 10.8014H11.2049ZM13.1275 8.6652C13.1275 9.23484 13.531 9.78079 14.0532 9.852C14.5279 9.852 14.9552 9.44849 15.0264 8.8788C15.0501 8.26166 14.6466 7.71573 14.1244 7.64453C13.6972 7.64453 13.1987 8.11925 13.1275 8.66517V8.6652Z" fill="#B2539F"/>
</g>
<defs>
<clipPath id="clip0_2035_3258">
<rect width="24" height="24" fill="white"/>
</clipPath>
</defs>
</svg>
