<svg width="24" height="24" viewBox="0 0 24 24" fill="none" xmlns="http://www.w3.org/2000/svg">
<g id="crypto / bitcoin-cash" clip-path="url(#clip0_30_1221)">
<path id="Vector" d="M0.119995 11.9882C0.119995 9.8519 0.665923 7.85805 1.73407 6.00662C2.80221 4.22637 4.22637 2.80221 6.00662 1.73407C7.85805 0.665923 9.8519 0.119995 12.0119 0.119995C14.1482 0.119995 16.142 0.665923 17.9935 1.73407C19.7737 2.80221 21.1979 4.22637 22.266 6.00662C23.3341 7.85805 23.8801 9.8519 23.8801 11.9882C23.8801 14.1482 23.3341 16.142 22.266 17.9934C21.1979 19.7737 19.7737 21.1979 17.9935 22.266C16.142 23.3341 14.1482 23.8801 12.0119 23.8801C9.8519 23.8801 7.85805 23.3341 6.00662 22.266C4.22637 21.1979 2.80221 19.7737 1.73407 17.9935C0.665923 16.142 0.119995 14.1482 0.119995 11.9882V11.9882ZM4.91472 13.7921C5.24704 15.0739 5.86418 16.1895 6.78991 17.1152C7.6919 18.0409 8.76002 18.6581 9.99432 19.0141C11.2523 19.3702 12.5341 19.3939 13.8159 19.0616C15.0976 18.753 16.2132 18.1121 17.1389 17.1864C18.0647 16.2845 18.6818 15.2163 19.0379 14.0057C19.3939 12.7477 19.4177 11.466 19.0853 10.1842C18.8242 9.09232 18.3258 8.11915 17.6137 7.28836C16.9253 6.4576 16.0946 5.81671 15.1214 5.36572C14.1482 4.91474 13.1038 4.67738 12.0119 4.67738C11.3948 4.67738 10.7776 4.74859 10.1842 4.89098C8.90244 5.22331 7.78684 5.86418 6.86112 6.78991C5.93541 7.66816 5.31825 8.73631 4.96221 9.97058C4.60617 11.2286 4.58244 12.5104 4.91474 13.7921H4.91472ZM8.0242 9.56707L8.26156 10.4928L8.76004 10.3504C9.02112 10.2791 9.18727 10.2791 9.28224 10.3504C9.35344 10.3978 9.40092 10.4453 9.42465 10.4928C9.44839 10.5402 9.49586 10.6115 9.5196 10.7301L10.4453 14.3618C10.4691 14.4805 10.4691 14.5517 10.4216 14.6229C10.3741 14.6941 10.2791 14.7653 10.113 14.8128L9.5908 14.9315L9.68575 16.0234L11.3948 15.5961L11.7508 16.9965L12.6291 16.7592L12.273 15.3587L12.9376 15.1926L13.2937 16.593L14.1719 16.3794L13.8159 14.9552C14.0532 14.884 14.2431 14.8128 14.3618 14.7653H14.3855C14.9077 14.5517 15.3113 14.2906 15.5723 13.9583C15.786 13.7209 15.9047 13.4598 15.9284 13.1513C15.9521 12.8901 15.9284 12.6053 15.8572 12.273C15.7385 11.7271 15.4537 11.371 15.0264 11.2049C14.884 11.1337 14.7179 11.0862 14.5042 11.0625H14.2194C14.433 10.8488 14.5517 10.6827 14.6229 10.5165C14.7179 10.3029 14.7416 10.0418 14.6941 9.75696C14.6466 9.56707 14.5754 9.37718 14.5042 9.211C14.3381 8.92617 14.1244 8.73628 13.8633 8.6176C13.4123 8.42772 12.8427 8.40398 12.1781 8.5464L11.7983 7.12224L10.92 7.33584L11.2998 8.73628L10.6115 8.90244L10.2554 7.50199L9.37718 7.73935L9.75696 9.1398L8.0242 9.56707ZM10.8725 9.89937C11.0625 9.82816 11.2523 9.78069 11.4185 9.73322C11.7271 9.66201 11.9644 9.63828 12.1781 9.63828H12.3205C12.5104 9.66201 12.6765 9.70948 12.8189 9.80443C12.9376 9.89937 13.0325 10.018 13.08 10.1842C13.175 10.4928 13.1275 10.7301 12.9139 10.9438C12.7003 11.1574 12.3917 11.2998 12.0356 11.3947L11.2998 11.5847L10.8725 9.89937ZM11.5372 12.4629C11.8932 12.3442 12.2255 12.273 12.5104 12.2018C12.724 12.1781 12.9139 12.1543 13.1275 12.1543C13.2937 12.1543 13.4123 12.1543 13.531 12.1781C13.8871 12.2493 14.1007 12.4391 14.1719 12.7477C14.2194 12.9376 14.2194 13.1038 14.1482 13.2699C14.1007 13.3649 14.0295 13.4598 13.9108 13.5785C13.6972 13.7684 13.3886 13.9345 12.9614 14.077L12.3442 14.2431L12.0119 14.3381L11.5372 12.4629Z" fill="#5CCB79"/>
</g>
<defs>
<clipPath id="clip0_30_1221">
<rect width="24" height="24" fill="white"/>
</clipPath>
</defs>
</svg>
