<svg width="32" height="32" viewBox="0 0 32 32" fill="none" xmlns="http://www.w3.org/2000/svg">
<g id="general  / menu">
<mask id="mask0_2003_2033" style="mask-type:alpha" maskUnits="userSpaceOnUse" x="2" y="6" width="28" height="20">
<path id="icon" fill-rule="evenodd" clip-rule="evenodd" d="M2.6665 8C2.6665 7.26362 3.26346 6.66667 3.99984 6.66667H27.9998C28.7362 6.66667 29.3332 7.26362 29.3332 8C29.3332 8.73638 28.7362 9.33333 27.9998 9.33333H3.99984C3.26346 9.33333 2.6665 8.73638 2.6665 8ZM2.6665 16C2.6665 15.2636 3.26346 14.6667 3.99984 14.6667H27.9998C28.7362 14.6667 29.3332 15.2636 29.3332 16C29.3332 16.7364 28.7362 17.3333 27.9998 17.3333H3.99984C3.26346 17.3333 2.6665 16.7364 2.6665 16ZM2.6665 24C2.6665 23.2636 3.26346 22.6667 3.99984 22.6667H27.9998C28.7362 22.6667 29.3332 23.2636 29.3332 24C29.3332 24.7364 28.7362 25.3333 27.9998 25.3333H3.99984C3.26346 25.3333 2.6665 24.7364 2.6665 24Z" fill="black"/>
</mask>
<g mask="url(#mask0_2003_2033)">
<rect id="color" width="32" height="32" transform="matrix(-1 0 0 1 32 0)" fill="white"/>
</g>
</g>
</svg>
