<svg width="24" height="24" viewBox="0 0 24 24" fill="none" xmlns="http://www.w3.org/2000/svg">
<g id="crypto / cardano" clip-path="url(#clip0_2035_3293)">
<path id="Vector" d="M0.119995 11.9882C0.131851 5.42507 5.42032 0.119995 12 0.119995C18.4919 0.119995 23.8801 5.36572 23.8801 12C23.8801 18.4919 18.6343 23.8801 12 23.8801C5.50814 23.8801 0.119995 18.6343 0.119995 11.9882ZM2.92089 11.9407C2.89713 12.0594 2.94463 12.1781 3.01584 12.273C3.08704 12.3442 3.20572 12.3917 3.3244 12.3917C3.44308 12.3917 3.53803 12.3679 3.63297 12.2967C3.75165 12.2255 3.77539 12.1068 3.77539 11.9882C3.79915 11.8695 3.77539 11.7508 3.68044 11.6559C3.5855 11.6084 3.49056 11.5372 3.37188 11.5372C3.2532 11.5134 3.13452 11.5847 3.08704 11.6321C2.9921 11.7033 2.92089 11.7983 2.92089 11.9407ZM4.67738 8.11915C4.67738 8.26156 4.77232 8.38024 4.89098 8.45145C5.03342 8.5464 5.1521 8.57013 5.29452 8.5464C5.46067 8.49892 5.57935 8.42772 5.65056 8.33277C5.7455 8.19036 5.76924 8.0242 5.7455 7.90552C5.72176 7.76311 5.62682 7.6444 5.4844 7.54946C5.36572 7.47825 5.22331 7.43078 5.10463 7.47825C4.93848 7.50201 4.8198 7.5732 4.74859 7.71561C4.67738 7.83432 4.65364 8.00047 4.67738 8.11915ZM4.70112 15.7385C4.65364 15.8809 4.65364 15.9996 4.72485 16.1658C4.79606 16.2845 4.91474 16.3794 5.03342 16.4269C5.1521 16.4743 5.31825 16.4743 5.46067 16.4031C5.57935 16.3319 5.69803 16.2132 5.7455 16.0946C5.76926 15.9284 5.76926 15.786 5.69803 15.6673C5.62682 15.5486 5.53188 15.4299 5.38946 15.3825C5.24704 15.335 5.12836 15.335 4.96221 15.4299C4.8198 15.5011 4.74859 15.5961 4.70109 15.7385H4.70112ZM4.98595 11.917C4.96219 12.0831 5.00968 12.273 5.12836 12.3917C5.27078 12.5578 5.4132 12.6053 5.60308 12.6053C5.76924 12.6291 5.93541 12.5578 6.05409 12.4391C6.19651 12.3205 6.26769 12.1543 6.29145 11.9882C6.29145 11.8457 6.24398 11.6321 6.10156 11.5372C6.00662 11.3948 5.81671 11.3236 5.65056 11.2998C5.46067 11.2998 5.31825 11.371 5.17584 11.466C5.08089 11.6084 4.98595 11.7271 4.98595 11.917ZM7.00353 9.63828C7.051 9.85188 7.16968 9.99432 7.33584 10.113C7.50199 10.2317 7.6919 10.2791 7.90552 10.2317C8.09541 10.1842 8.2853 10.0655 8.40398 9.89937C8.52266 9.70948 8.5464 9.54333 8.49892 9.35344C8.45145 9.1398 8.35651 8.97364 8.16662 8.85496C8.0242 8.73628 7.81058 8.68881 7.59696 8.73628C7.40704 8.78376 7.21715 8.90244 7.09847 9.06859C6.97979 9.25848 6.97979 9.42465 7.00353 9.63828ZM7.051 14.1719C6.97979 14.3855 6.97979 14.5992 7.09847 14.7653C7.16968 14.9552 7.33583 15.0739 7.52572 15.1451C7.71563 15.2163 7.90552 15.2163 8.09541 15.0976C8.33277 15.0027 8.40398 14.8603 8.47519 14.6704C8.57013 14.4568 8.5464 14.2669 8.42772 14.1007C8.35651 13.9345 8.21409 13.7684 8.0242 13.6972C7.78684 13.626 7.59696 13.6734 7.40704 13.7447C7.24089 13.8396 7.09847 13.9583 7.051 14.1719ZM7.26463 4.29758C7.21715 4.41628 7.21716 4.53494 7.28839 4.60617C7.33584 4.74859 7.40704 4.79606 7.52575 4.81977C7.64443 4.86727 7.73935 4.86727 7.88179 4.79606C8.00047 4.74859 8.07168 4.67738 8.07168 4.58244C8.09541 4.46376 8.09541 4.34508 8.07168 4.22637C8.0242 4.13143 7.92926 4.08396 7.81056 4.03648C7.6919 3.98901 7.57319 3.98901 7.47825 4.06024C7.40704 4.10769 7.3121 4.15516 7.26465 4.2976L7.26463 4.29758ZM7.28839 19.5601C7.3121 19.7025 7.38331 19.7974 7.45452 19.8449C7.54946 19.8924 7.66816 19.9398 7.78684 19.8924C7.92926 19.8686 8.0242 19.8212 8.07168 19.7262C8.11915 19.6313 8.16662 19.5126 8.11915 19.4177C8.09539 19.2752 8.07168 19.1803 7.953 19.1328C7.83432 19.0379 7.73937 19.0379 7.64443 19.0616C7.50199 19.0853 7.40707 19.1565 7.35957 19.2515C7.26463 19.3702 7.26463 19.4651 7.28836 19.5601H7.28839ZM7.88179 11.8695C7.88179 12.2493 8.00047 12.5578 8.21409 12.7952C8.45145 13.08 8.85496 13.2462 9.16353 13.2462C9.49586 13.2224 9.78069 13.1038 10.0418 12.8664C10.2791 12.6291 10.3978 12.3205 10.3978 12.0119C10.4453 11.6321 10.3504 11.3473 10.0893 11.1099C9.87564 10.8726 9.59078 10.7301 9.23474 10.7064C8.85496 10.6589 8.57013 10.7776 8.33277 10.9913C8.07165 11.2286 7.90552 11.5135 7.88179 11.8695ZM8.19036 6.17277C8.14288 6.36266 8.14288 6.52881 8.23783 6.69496C8.33277 6.83738 8.42772 6.95608 8.6176 7.02727C8.78376 7.07474 8.97364 7.05103 9.09232 6.9798C9.2585 6.90859 9.37718 6.78991 9.44839 6.62375C9.47212 6.43387 9.47212 6.26771 9.40092 6.10156C9.32971 5.95912 9.211 5.84044 9.02112 5.76924C8.83123 5.72176 8.68881 5.7455 8.5464 5.81671C8.38024 5.88792 8.26156 6.00662 8.19036 6.17277ZM8.21409 17.6374C8.23783 17.8273 8.33277 17.946 8.47519 18.0409C8.64134 18.1596 8.80749 18.1834 8.99738 18.1359C9.1398 18.1121 9.28224 18.0172 9.37718 17.8511C9.47212 17.7324 9.49586 17.5662 9.47212 17.3763C9.44836 17.2102 9.32971 17.0677 9.211 16.9491C9.04485 16.8779 8.90244 16.8541 8.73628 16.8779C8.5464 16.8779 8.40398 17.0203 8.30904 17.1627C8.19036 17.3051 8.16662 17.495 8.21409 17.6374ZM9.37718 14.6941C9.42465 15.0502 9.61454 15.2875 9.92311 15.5249C10.113 15.6198 10.3504 15.7148 10.6115 15.7148C10.8013 15.7148 11.015 15.6673 11.2049 15.5723C11.3948 15.4774 11.5609 15.2875 11.6796 15.1451C11.8457 14.8603 11.9407 14.5517 11.8457 14.1957C11.7508 13.8633 11.5846 13.6022 11.2998 13.3886C11.0862 13.2699 10.8488 13.1987 10.6115 13.1987C10.3741 13.1987 10.1605 13.2462 10.0181 13.3174C9.80443 13.4361 9.66201 13.6022 9.54333 13.7447C9.35344 14.0532 9.30597 14.3856 9.37718 14.6941ZM9.37718 9.04485C9.28224 9.35344 9.30597 9.68575 9.47212 10.0181C9.56707 10.2317 9.70948 10.3978 9.92308 10.5165C10.1367 10.6589 10.3741 10.7064 10.6115 10.7064C10.8013 10.7064 11.015 10.6589 11.1574 10.5877C11.4897 10.4216 11.6796 10.1605 11.7745 9.85188C11.917 9.5196 11.8695 9.16356 11.7271 8.8787C11.6084 8.6651 11.4422 8.47519 11.2761 8.35651C11.0625 8.26156 10.8488 8.19036 10.6115 8.19036C10.3741 8.19036 10.2079 8.23783 10.0181 8.33277C9.70948 8.47519 9.47212 8.73628 9.37718 9.04485ZM11.2523 16.8541C11.2286 17.044 11.2998 17.2102 11.4422 17.3763C11.5609 17.5425 11.7508 17.6137 11.9644 17.6374C12.1781 17.6612 12.3442 17.5662 12.4866 17.4475C12.6528 17.3288 12.724 17.1389 12.7477 16.9253C12.7715 16.7117 12.6765 16.5455 12.5579 16.4031C12.4391 16.237 12.2493 16.1658 12.0356 16.142C11.822 16.1183 11.6559 16.2132 11.5134 16.3319C11.3473 16.4506 11.2761 16.6168 11.2523 16.8541H11.2523ZM11.2998 6.95606C11.2761 7.16968 11.3473 7.35957 11.466 7.50199C11.6084 7.66816 11.7745 7.73935 11.9882 7.76311C12.2018 7.76311 12.3679 7.71564 12.5341 7.54946C12.6528 7.43078 12.7715 7.28836 12.7952 7.051C12.7952 6.86111 12.724 6.67123 12.6053 6.50508C12.4391 6.36266 12.273 6.26772 12.0594 6.24396C11.8695 6.22024 11.6796 6.29145 11.5372 6.43387C11.371 6.57628 11.2998 6.74243 11.2998 6.95606ZM11.466 19.8212C11.4422 19.9873 11.5134 20.106 11.6084 20.2009C11.7033 20.3196 11.8457 20.3671 11.9882 20.3671C12.1068 20.3909 12.2493 20.3434 12.3679 20.2484C12.4866 20.1535 12.5341 20.0111 12.5341 19.8686C12.5579 19.75 12.5104 19.6075 12.4154 19.4889C12.3205 19.3702 12.1781 19.3227 12.0356 19.299C11.8932 19.2752 11.7508 19.3464 11.6559 19.4177C11.5372 19.5363 11.466 19.6787 11.466 19.8212ZM11.4897 4.01275C11.4659 4.13143 11.5134 4.29758 11.6321 4.41628C11.7271 4.53496 11.8695 4.58244 11.9882 4.58244C12.1306 4.60617 12.273 4.58244 12.3917 4.44002C12.5104 4.34508 12.5579 4.20266 12.5816 4.08396C12.5816 3.89407 12.5104 3.77539 12.4154 3.68044C12.3205 3.5855 12.2255 3.51429 12.0356 3.51429C11.8932 3.49056 11.7508 3.56176 11.6796 3.65671C11.5372 3.75165 11.4897 3.89407 11.4897 4.01275ZM12.2255 9.68575C12.3205 10.0418 12.4866 10.3029 12.7715 10.5165C12.9851 10.6352 13.2224 10.7064 13.4836 10.7064C13.6972 10.7064 13.9108 10.6589 14.0532 10.564C14.2669 10.469 14.433 10.3029 14.5279 10.1367C14.7179 9.82816 14.7653 9.5196 14.7179 9.18729C14.6466 8.85496 14.4805 8.59387 14.1719 8.38024C13.9583 8.26156 13.7447 8.19036 13.4836 8.19036C13.2937 8.19036 13.0563 8.23783 12.8902 8.33277C12.6528 8.42772 12.5104 8.59389 12.4154 8.73628C12.2255 9.02112 12.1543 9.35344 12.2255 9.68572L12.2255 9.68575ZM12.2967 14.0295C12.1781 14.3855 12.2255 14.7178 12.3442 15.0264C12.4629 15.24 12.6528 15.4062 12.8189 15.5249C13.0088 15.6198 13.2462 15.7148 13.4836 15.7148C13.6734 15.7148 13.8633 15.6673 14.0532 15.5723C14.3855 15.4062 14.5992 15.1451 14.6941 14.8603C14.7891 14.528 14.7653 14.1956 14.6229 13.8871C14.5042 13.6497 14.3381 13.4836 14.1482 13.3649C13.9583 13.2462 13.7209 13.175 13.4836 13.1987C13.2937 13.1987 13.08 13.2462 12.9139 13.2937C12.6053 13.4836 12.3917 13.7209 12.2967 14.0295ZM13.6497 11.8695C13.626 12.2018 13.7447 12.5341 13.982 12.7952C14.2431 13.0325 14.5042 13.1987 14.8603 13.2225H14.9552C15.2638 13.2225 15.5723 13.08 15.8097 12.8664C16.0471 12.6291 16.1895 12.3205 16.1895 12.0119C16.237 11.6321 16.0946 11.3473 15.8809 11.1099C15.6198 10.8488 15.3587 10.7064 14.9789 10.6827C14.6229 10.6589 14.3143 10.7539 14.077 10.9913C13.8159 11.2286 13.6734 11.5135 13.6497 11.8695ZM14.5991 6.36266C14.5754 6.4576 14.6229 6.60002 14.6466 6.67123C14.6941 6.78991 14.7891 6.86111 14.884 6.93235C14.9552 7.00353 15.0739 7.051 15.1926 7.051C15.3113 7.051 15.4299 7.02727 15.5249 6.9798C15.6198 6.90859 15.7148 6.83738 15.786 6.71868C15.8809 6.60002 15.9047 6.3864 15.8809 6.24396C15.8572 6.07783 15.7385 5.93539 15.5961 5.84044C15.4299 5.7455 15.2638 5.72176 15.0976 5.7455C14.9552 5.76926 14.7891 5.86418 14.6704 6.03035C14.6229 6.10156 14.5992 6.22024 14.5992 6.36266H14.5991ZM14.6229 17.2814C14.5991 17.4475 14.5991 17.6137 14.6704 17.8036C14.7416 17.9223 14.884 18.0409 15.0502 18.1121C15.24 18.1834 15.4062 18.1596 15.5486 18.0647C15.691 18.0172 15.8334 17.8748 15.8809 17.7086C15.9284 17.5425 15.9284 17.3526 15.8572 17.2102C15.7622 17.0677 15.6198 16.9253 15.4537 16.8779C15.2638 16.8304 15.1214 16.8541 14.9552 16.9016C14.8128 16.9728 14.6941 17.1152 14.6229 17.2814ZM15.5961 14.5754C15.6198 14.7416 15.7148 14.9077 15.9047 15.0502C16.0708 15.1451 16.2607 15.1926 16.4981 15.1451C16.6642 15.0976 16.8541 15.0027 16.9728 14.8365C17.0915 14.6229 17.1152 14.4568 17.0677 14.2668C17.0203 14.0295 16.9016 13.9108 16.7592 13.7684C16.5693 13.6734 16.3794 13.626 16.1658 13.6734C15.9759 13.6972 15.8097 13.8159 15.6673 13.982C15.5723 14.1719 15.5486 14.3618 15.5961 14.5754H15.5961ZM15.5961 9.211C15.5249 9.42465 15.5486 9.63828 15.6198 9.80443C15.7148 9.99432 15.8809 10.113 16.0708 10.1842C16.2844 10.2791 16.4981 10.2317 16.6405 10.1367C16.8304 10.0418 16.9728 9.92311 17.0203 9.70948C17.1152 9.49586 17.0915 9.30597 16.9965 9.1398C16.9016 8.9262 16.7592 8.80749 16.5693 8.73628C16.3557 8.68881 16.1658 8.68881 15.9521 8.78376C15.7622 8.90244 15.6436 9.02112 15.5961 9.211H15.5961ZM15.9284 4.48749C15.9521 4.60617 16.0234 4.72485 16.1183 4.77232C16.2607 4.84353 16.3319 4.84353 16.4506 4.8198C16.593 4.79604 16.6642 4.74859 16.7592 4.62991C16.8066 4.53496 16.8066 4.44002 16.7829 4.34508C16.7829 4.1789 16.7117 4.10772 16.593 4.06022C16.5455 3.98901 16.4031 3.94154 16.2845 3.98901C16.142 4.01277 16.0708 4.08396 15.9996 4.15516C15.9284 4.25011 15.9047 4.36881 15.9284 4.48749ZM15.9996 19.655C16.0708 19.75 16.142 19.8212 16.2607 19.8449C16.3794 19.8924 16.5218 19.8924 16.593 19.8449C16.688 19.8211 16.7829 19.7262 16.8066 19.6075C16.8541 19.4889 16.8541 19.3702 16.7829 19.2752C16.7592 19.1803 16.6405 19.0853 16.5693 19.0616C16.4506 19.0141 16.3082 19.0141 16.2132 19.0853C16.0946 19.1565 16.0234 19.204 15.9996 19.3227C15.9521 19.4177 15.9521 19.5363 15.9996 19.655ZM17.8036 11.8932C17.7798 12.0594 17.8511 12.2493 17.946 12.3442C18.0884 12.5104 18.2308 12.5578 18.4207 12.5816C18.5869 12.6053 18.7768 12.5341 18.8717 12.4154C19.0141 12.2967 19.0853 12.1543 19.0853 11.9645C19.1091 11.822 19.0616 11.6321 18.9429 11.4897C18.8242 11.3473 18.6581 11.2998 18.4919 11.2998C18.3258 11.2761 18.1596 11.3236 18.0172 11.4422C17.8985 11.5847 17.8273 11.7271 17.8036 11.8932ZM18.3495 15.9759C18.3732 16.142 18.4445 16.237 18.5869 16.3319C18.7055 16.4269 18.848 16.4506 18.9904 16.4269C19.1328 16.4031 19.2515 16.3082 19.3227 16.2132C19.4177 16.0471 19.4414 15.9047 19.4177 15.7622C19.3939 15.6198 19.299 15.5249 19.204 15.4299C19.0616 15.335 18.8954 15.3113 18.8005 15.335C18.6106 15.3825 18.5157 15.4774 18.4207 15.5723C18.3495 15.7148 18.3258 15.8572 18.3495 15.9759ZM18.3495 7.78682C18.302 7.95299 18.302 8.07168 18.3732 8.23783C18.4445 8.35651 18.5631 8.45145 18.6818 8.47519C18.848 8.5464 18.9666 8.5464 19.1091 8.45145C19.2515 8.40398 19.3227 8.2853 19.3702 8.16662C19.4414 8.0242 19.4414 7.88179 19.3464 7.73937C19.2752 7.59693 19.1803 7.52572 19.0616 7.47825C18.8954 7.40704 18.7768 7.40704 18.6106 7.50201C18.5157 7.54946 18.3732 7.66816 18.3495 7.78684V7.78682ZM20.2959 11.8932C20.2721 12.0119 20.3196 12.1306 20.4146 12.2255C20.4858 12.2967 20.5807 12.3442 20.6994 12.3442C20.8418 12.368 20.9368 12.3205 21.008 12.273C21.1029 12.1781 21.1504 12.1068 21.1504 11.9644C21.1741 11.8457 21.1266 11.7033 21.0792 11.6321C20.9843 11.5372 20.8656 11.4897 20.7706 11.4897C20.6519 11.4659 20.5095 11.5134 20.4383 11.6084C20.3434 11.6559 20.2959 11.7983 20.2959 11.8932H20.2959Z" fill="#0F61E2"/>
</g>
<defs>
<clipPath id="clip0_2035_3293">
<rect width="24" height="24" fill="white"/>
</clipPath>
</defs>
</svg>
