<svg width="25" height="24" viewBox="0 0 25 24" fill="none" xmlns="http://www.w3.org/2000/svg">
<g id="crypto / chainlink" clip-path="url(#clip0_2035_499)">
<path id="Vector" d="M0.619995 12.0002C0.622371 14.1483 1.1612 16.1445 2.23407 17.9936C3.29508 19.7809 4.71927 21.2051 6.50662 22.2661C8.35805 23.3414 10.3567 23.8802 12.5 23.8802C14.6434 23.8802 16.642 23.3414 18.4935 22.2661C20.2808 21.2051 21.705 19.7809 22.766 17.9936C23.8413 16.1422 24.3801 14.1436 24.3801 12.0002C24.3801 9.85677 23.8413 7.85817 22.766 6.00674C21.6979 4.22649 20.2737 2.80233 18.4935 1.73419C16.642 0.658917 14.6434 0.120117 12.5 0.120117C10.3567 0.120117 8.35805 0.658917 6.50662 1.73419C4.71927 2.79521 3.29508 4.21939 2.23407 6.00674C1.1612 7.8558 0.622371 9.85202 0.619995 12.0002ZM4.6789 16.4507V7.64455C4.6789 7.50211 4.70266 7.4309 4.84508 7.35969C7.38485 5.88804 9.92465 4.41641 12.4882 2.92101C12.6306 2.87354 12.7255 2.87354 12.7967 2.96849C14.2684 3.77551 15.7638 4.65377 17.2354 5.50826C18.2798 6.10169 19.3954 6.74256 20.4636 7.35969C20.5585 7.4309 20.606 7.50211 20.606 7.62081V16.4507C20.606 16.5931 20.5585 16.6881 20.4636 16.7356C20.3212 16.8305 12.9629 21.0793 12.8205 21.1505C12.7255 21.2217 12.6306 21.2217 12.5831 21.198C9.97212 19.6789 7.38487 18.2309 4.84508 16.7118C4.70264 16.6881 4.6789 16.5931 4.6789 16.4507V16.4507ZM8.02572 14.4569C8.02572 14.6468 8.04948 14.7654 8.21563 14.8604C9.97212 15.8573 11.2301 16.5931 12.4882 17.329C12.5831 17.3527 12.6306 17.3764 12.773 17.329C14.2209 16.4982 15.6926 15.6674 17.1168 14.8367C17.2354 14.7654 17.3066 14.6705 17.3066 14.5281V9.56719C17.3066 9.44851 17.2592 9.35357 17.1168 9.2586C15.6926 8.42784 14.2209 7.62079 12.7968 6.79003C12.6781 6.71882 12.6306 6.71882 12.4882 6.79003C12.2745 6.93245 12.0134 7.07486 11.7523 7.21728C10.5893 7.90565 9.37872 8.59399 8.21563 9.2586C8.09695 9.35357 8.02572 9.42477 8.02572 9.56719V14.4569Z" fill="#2A5ADA"/>
</g>
<defs>
<clipPath id="clip0_2035_499">
<rect width="24" height="24" fill="white" transform="translate(0.5)"/>
</clipPath>
</defs>
</svg>
