<svg width="24" height="24" viewBox="0 0 24 24" fill="none" xmlns="http://www.w3.org/2000/svg">
<g id="crypto / chilz" clip-path="url(#clip0_2035_123)">
<path id="Vector" d="M12.0119 0.120117C18.5631 0.120117 23.8801 5.43708 23.8801 12.0002C23.8801 18.492 18.6343 23.8802 12 23.8802C5.50814 23.8802 0.119995 18.6345 0.119995 12.0002C0.119995 5.50826 5.36572 0.120117 12.0119 0.120117ZM4.20264 5.8643C4.20264 6.41025 4.62991 6.86124 5.22331 6.93245C5.27078 6.93245 5.34199 6.93245 5.34199 7.00365C5.46067 7.19354 5.53188 7.35969 5.65056 7.57332C6.33892 9.06871 7.12224 10.6116 7.81056 12.1307C7.88179 12.2019 7.88179 12.2494 7.81056 12.3206C7.54946 12.6292 7.47825 13.009 7.66816 13.3887C7.88176 13.7685 8.19036 13.9584 8.6176 13.9584C8.68881 13.9584 8.76002 14.0296 8.76002 14.0771C9.63828 15.8573 10.5402 17.6375 11.3473 19.4652C11.4185 19.5365 11.4185 19.5365 11.3473 19.5839C11.2049 19.7738 11.1574 19.9637 11.1574 20.1773C11.0862 20.6046 11.3473 21.0556 11.8457 21.2455C12.2967 21.3641 12.7477 21.2455 13.0563 20.8419C13.3174 20.4859 13.3174 19.8925 12.9851 19.5365C12.9139 19.5365 12.9139 19.4652 12.9139 19.394C13.6972 17.6376 14.4568 15.8573 15.2163 14.0771C15.2638 14.0296 15.2638 13.9584 15.335 13.9584C16.0946 13.8397 16.4031 13.009 16.0471 12.3681V12.2019C16.7354 10.5404 17.4713 8.83135 18.1834 7.19354C18.2308 7.00365 18.302 6.93245 18.4919 6.86124C19.0141 6.86124 19.3702 6.41025 19.3702 5.93551C19.4651 5.41332 19.0616 4.98607 18.6343 4.84365C18.1121 4.72497 17.6137 4.98607 17.4238 5.34213C17.3526 5.46079 17.3051 5.46079 17.2339 5.46079H6.22024C6.03035 5.03354 5.69803 4.84365 5.22331 4.84365C4.62991 4.84365 4.20264 5.29464 4.20264 5.8643ZM6.22024 7.00365C7.92926 8.19045 9.5908 9.35357 11.2761 10.5404C11.1574 10.6116 11.0387 10.7303 10.8963 10.7777C10.3978 11.1813 9.82816 11.561 9.30597 12.012C9.2585 12.0595 9.18727 12.012 9.1398 12.012C8.94991 11.9408 8.83123 11.9408 8.6176 11.8696C8.5464 11.8696 8.5464 11.8696 8.49892 11.7984C7.88179 10.4217 7.16968 9.02124 6.48134 7.57332C6.41013 7.35972 6.29145 7.19354 6.22022 7.00365H6.22024ZM6.52881 6.2441H17.1627C17.1152 6.29157 17.1152 6.36278 17.044 6.36278C15.4062 7.57334 13.7447 8.76014 12.1068 9.9707C11.9644 10.0182 11.917 10.0182 11.8457 9.9707C10.0893 8.76012 8.38024 7.57332 6.64752 6.36276C6.60004 6.36276 6.60004 6.29155 6.52884 6.24408L6.52881 6.2441ZM9.44839 13.7211V13.5786C9.63828 13.3175 9.70948 13.0801 9.70948 12.7479C9.63828 12.6767 9.70948 12.6292 9.78069 12.6292C10.469 12.1307 11.1574 11.561 11.917 11.0626C11.917 11.0626 11.9644 10.9676 12.0356 11.0626C12.7477 11.561 13.4361 12.012 14.1956 12.5105C14.0057 13.009 14.1482 13.4362 14.5042 13.7685C14.2669 14.3857 14.0057 14.9791 13.7447 15.5487C13.2462 16.7356 12.7477 17.8749 12.2493 19.0854C12.2493 19.1567 12.1543 19.2279 12.1543 19.2279C12.1068 19.2279 12.0356 19.1567 12.0356 19.0854C11.8457 18.6345 11.6084 18.2072 11.4185 17.8274C10.7776 16.427 10.0893 15.0978 9.44839 13.7211ZM12.6053 10.5404C14.1956 9.35357 15.7622 8.19048 17.4238 7.05113C17.3526 7.12233 17.3526 7.12233 17.3526 7.19354C16.7354 8.71267 16.0471 10.2318 15.4062 11.7984C15.335 11.8696 15.335 11.8696 15.2163 11.8696C15.0976 11.8696 14.9552 11.9408 14.7653 11.9408H14.6229C14.0057 11.4898 13.3174 10.9676 12.6765 10.5404H12.6053Z" fill="#AD0728"/>
</g>
<defs>
<clipPath id="clip0_2035_123">
<rect width="24" height="24" fill="white"/>
</clipPath>
</defs>
</svg>
