<svg width="24" height="24" viewBox="0 0 24 24" fill="none" xmlns="http://www.w3.org/2000/svg">
<g id="crypto / compound" clip-path="url(#clip0_2035_85)">
<path id="Vector" d="M12.0119 0.120117C5.36572 0.120117 0.119995 5.50826 0.119995 12.0002C0.119995 18.6345 5.50814 23.8802 12 23.8802C18.6344 23.8802 23.8801 18.492 23.8801 12.0002C23.8801 5.43705 18.5631 0.120117 12.0119 0.120117ZM4.34508 15.3588V13.2463C4.48749 12.2731 4.93848 11.9883 5.76924 12.3918C7.88179 13.6498 9.97058 14.9316 12.0831 16.2134C12.6528 16.4745 12.9376 16.9017 12.9376 17.4714V20.2723C12.9376 21.1268 12.3679 21.3879 11.5372 20.9844C10.7064 20.5571 9.82814 20.0112 8.99738 19.4415C7.88179 18.7294 6.60002 18.0173 5.4844 17.329C4.79606 16.9017 4.34508 16.2134 4.34508 15.3588ZM7.57319 11.4186V8.16674C7.57319 7.50211 8.0242 7.19354 8.71255 7.62079C10.9675 8.87882 13.2225 10.1606 15.335 11.4186C15.8809 11.7035 16.0234 12.107 16.0234 12.6767V18.587C16.0234 18.9905 15.8809 19.2991 15.5961 19.4415C15.1926 19.7026 14.7653 19.8688 14.4805 20.0112H14.2194V17.8749C14.2194 16.4745 13.9345 15.6199 12.6528 14.9316C11.1099 14.2432 9.56707 13.2463 8.14288 12.2731C7.73937 12.107 7.57319 11.8459 7.57319 11.4186ZM10.5402 6.22037V3.53815C10.5402 2.70739 10.9675 2.42253 11.822 2.84981C13.9345 4.10781 16.1895 5.36585 18.2783 6.62388C18.848 6.93245 18.9666 7.33596 18.9666 7.90565V16.7356C18.9666 17.4714 18.5631 17.8749 17.4475 18.1597V12.3918C17.4475 11.561 17.1627 10.9914 16.3319 10.4217C14.5992 9.44849 12.9376 8.47531 11.2523 7.50211C10.7064 7.19354 10.5402 6.79003 10.5402 6.22037Z" fill="#00D395"/>
</g>
<defs>
<clipPath id="clip0_2035_85">
<rect width="24" height="24" fill="white"/>
</clipPath>
</defs>
</svg>
