<svg width="24" height="24" viewBox="0 0 24 24" fill="none" xmlns="http://www.w3.org/2000/svg">
<g id="crypto / icon" clip-path="url(#clip0_31_1285)">
<path id="Vector" d="M0.120003 12C0.122379 9.8519 0.661203 7.85568 1.73407 6.00662C2.79509 4.21927 4.21927 2.79508 6.00663 1.73407C7.85806 0.658795 9.85666 0.119995 12.0001 0.119995C14.1434 0.119995 16.142 0.658795 17.9935 1.73407C19.7808 2.79508 21.205 4.21927 22.266 6.00662C23.3413 7.85805 23.8801 9.85665 23.8801 12C23.8801 14.1434 23.3413 16.142 22.266 17.9935C21.205 19.7808 19.7808 21.205 17.9935 22.266C16.142 23.3413 14.1434 23.8801 12.0001 23.8801C9.85666 23.8801 7.85806 23.3413 6.00663 22.266C4.21927 21.205 2.79509 19.7808 1.73407 17.9935C0.661203 16.1444 0.122379 14.1482 0.120003 12ZM5.0809 17.7561C5.0809 18.5394 5.81674 19.2515 6.55256 19.2515C7.2409 19.2515 8.00047 18.5394 8.00047 17.8036C8.00047 17.0915 7.33584 16.3319 6.60003 16.3319C5.81671 16.3319 5.15211 17.044 5.0809 17.7561ZM7.33584 14.8603C7.6207 15.2875 7.73938 15.2875 8.04792 15.0027C8.94991 14.1719 9.32971 14.0295 9.02112 13.5073C8.49893 12.1068 8.59387 10.7539 9.5196 9.61454C10.469 8.42772 11.822 8.00047 13.1275 8.42772C14.2906 8.8787 14.7653 8.38024 15.4537 7.69187C15.7385 7.35957 15.7385 7.16968 15.4537 6.95606C14.4568 6.43387 13.626 6.22022 12.4392 6.22022C10.469 6.22022 8.87871 6.95606 7.62068 8.42772C6.29146 10.3266 6.17275 13.08 7.33584 14.8603ZM9.02112 16.6168C9.80443 17.495 12.1069 18.0409 13.8634 17.6137C16.142 17.044 17.495 15.4062 18.1122 13.2699C18.5157 11.6084 18.1122 10.0418 16.9728 8.42772C16.5218 8.8787 16.142 9.30597 15.9284 9.61452C15.6198 9.89937 15.6198 10.1842 15.7385 10.5877C16.237 11.6796 16.142 12.8189 15.5011 13.8396C13.9583 16.5218 10.8251 15.0502 10.3504 15.2875C9.80443 15.5961 9.37716 16.142 9.02112 16.6168ZM16.7829 6.12528C16.7829 6.95604 17.495 7.57319 18.2071 7.57319C19.0853 7.57319 19.6788 6.95604 19.6788 6.12528C19.6788 5.27076 18.9667 4.62988 18.2071 4.62988C17.495 4.62988 16.7829 5.34196 16.7829 6.12528Z" fill="#0E9CBC"/>
</g>
<defs>
<clipPath id="clip0_31_1285">
<rect width="24" height="24" fill="white"/>
</clipPath>
</defs>
</svg>
