<svg width="24" height="24" viewBox="0 0 24 24" fill="none" xmlns="http://www.w3.org/2000/svg">
<g id="crypto / dai" clip-path="url(#clip0_2035_3722)">
<path id="Vector" d="M0.119995 12.012C0.119995 9.85202 0.665923 7.85817 1.73407 6.00674C2.80221 4.22649 4.22637 2.80233 6.00662 1.73419C7.85805 0.666045 9.8519 0.120117 12.0119 0.120117C14.1482 0.120117 16.142 0.666045 17.9935 1.73419C19.7737 2.80233 21.1979 4.22649 22.266 6.00674C23.3341 7.85817 23.8801 9.85202 23.8801 11.9883C23.8801 14.1483 23.3341 16.1422 22.266 17.9936C21.1979 19.7738 19.7737 21.198 17.9935 22.2661C16.142 23.3343 14.1482 23.8802 12.0119 23.8802C9.8519 23.8802 7.85805 23.3343 6.00662 22.2661C4.22637 21.198 2.80221 19.7738 1.73407 17.9936C0.665923 16.1422 0.119995 14.1483 0.119995 12.012ZM4.48749 14.4806C4.48749 14.623 4.48749 14.623 4.65364 14.623H6.29145C6.50505 14.623 6.48134 14.5993 6.48134 14.7892V18.9905C6.48134 19.1329 6.48134 19.1329 6.64749 19.1329C8.47519 19.1329 10.3029 19.1567 12.1543 19.1329C12.3917 19.1329 12.6765 19.1329 12.9139 19.1092C13.7209 19.0617 14.5517 18.8956 15.3113 18.587C15.9284 18.3496 16.4981 18.0648 17.044 17.6376C17.6374 17.1865 18.1834 16.6169 18.6106 15.976C18.8954 15.5725 19.0853 15.1452 19.2752 14.718C19.299 14.623 19.3464 14.623 19.4414 14.623H21.0317C21.1504 14.623 21.1504 14.623 21.1504 14.4806V13.0802C21.1504 12.9615 21.1029 12.9377 21.0555 12.9377C20.6519 12.9615 20.2721 12.9615 19.9161 12.9377C19.7025 12.9377 19.7025 12.9615 19.7262 12.7479C19.7974 12.2969 19.7974 11.7984 19.7262 11.3237C19.7262 11.2525 19.75 11.205 19.8449 11.205H21.0317C21.1504 11.205 21.1504 11.205 21.1504 11.1101V9.70961C21.1504 9.56719 21.1504 9.56719 21.0317 9.56719H19.4889C19.3939 9.56719 19.3464 9.54343 19.3227 9.47225C19.0853 8.90256 18.8242 8.35663 18.4682 7.85817C17.6849 6.8375 16.688 6.10169 15.5486 5.60321C14.9789 5.36585 14.3855 5.19969 13.8159 5.08101C13.2225 4.98607 12.6528 4.96233 12.0356 4.96233H6.62375C6.48134 4.96233 6.48134 4.96233 6.48134 5.08101V9.42477C6.48134 9.56719 6.48134 9.56719 6.36266 9.56719H4.62991C4.48749 9.56719 4.48749 9.56719 4.48749 9.70961V11.0863C4.48749 11.205 4.48749 11.205 4.62991 11.205H6.36266C6.48134 11.205 6.48134 11.2287 6.48134 11.3474V12.8191C6.48134 12.9377 6.48134 12.9377 6.36266 12.9377C5.76924 12.9615 5.22331 12.9615 4.62991 12.9615C4.48749 12.9615 4.48749 12.9615 4.48749 13.0802V14.4806ZM8.11915 17.5426V14.7417C8.11915 14.623 8.11915 14.623 8.23783 14.623H17.5425C17.4238 14.8366 17.3288 15.0028 17.2102 15.169C16.7592 15.881 16.1658 16.427 15.4537 16.8542C14.7653 17.234 14.0532 17.4951 13.2699 17.5901C12.8902 17.6375 12.4866 17.6376 12.1069 17.6376C10.8013 17.6613 9.5196 17.6376 8.23783 17.6376C8.11915 17.6376 8.11915 17.6375 8.11915 17.5426ZM8.11915 12.8191V11.3474C8.11915 11.2287 8.11915 11.205 8.23783 11.205H17.8985C18.0409 11.205 18.0647 11.205 18.0647 11.3711C18.0884 11.7272 18.0884 12.1307 18.0884 12.4867C18.0884 12.6054 18.0647 12.7004 18.0647 12.8191C18.0409 12.9377 18.0409 12.9377 17.9223 12.9377H8.30904C8.28528 12.9377 8.23783 12.9377 8.23783 12.9615C8.14288 12.9615 8.11915 12.914 8.11915 12.8191ZM8.11915 9.42475V6.60017C8.11915 6.45775 8.14288 6.45775 8.23783 6.45775H12.1306C12.629 6.45775 13.1275 6.48149 13.6022 6.60017C14.1719 6.71885 14.7416 6.885 15.2638 7.19356C16.1895 7.66828 16.9253 8.35665 17.4238 9.28238C17.4712 9.35359 17.495 9.44853 17.5425 9.51974C17.5425 9.51974 17.5425 9.54348 17.5662 9.56721H8.23783C8.11915 9.56721 8.11915 9.56721 8.11915 9.4248V9.42475Z" fill="#FDD16C"/>
</g>
<defs>
<clipPath id="clip0_2035_3722">
<rect width="24" height="24" fill="white"/>
</clipPath>
</defs>
</svg>
