<svg width="24" height="24" viewBox="0 0 24 24" fill="none" xmlns="http://www.w3.org/2000/svg">
<g id="crypto / decentraland" clip-path="url(#clip0_31_1282)">
<path id="Vector" d="M0.119999 12C0.122375 9.8519 0.661199 7.85568 1.73407 6.00662C2.79509 4.21927 4.21927 2.79508 6.00662 1.73407C7.85806 0.658795 9.85666 0.119995 12 0.119995C14.1434 0.119995 16.142 0.658795 17.9935 1.73407C19.7808 2.79508 21.205 4.21927 22.266 6.00662C23.3413 7.85805 23.8801 9.85665 23.8801 12C23.8801 14.1434 23.3413 16.142 22.266 17.9935C21.205 19.7808 19.7808 21.205 17.9935 22.266C16.142 23.3413 14.1434 23.8801 12 23.8801C9.85666 23.8801 7.85806 23.3413 6.00662 22.266C4.21927 21.205 2.79509 19.7808 1.73407 17.9935C0.661199 16.1444 0.122375 14.1482 0.119999 12ZM2.35121 12.1781C2.42242 17.5662 6.67121 21.8625 12.1068 21.8625C17.7086 21.8625 21.815 17.2814 21.815 12.1781C21.7675 6.90861 17.5187 2.51736 12.0831 2.51736C6.7187 2.51736 2.35121 6.83738 2.35121 12.1781V12.1781ZM3.08705 11.7983C3.08705 12.0594 3.13452 12.1781 3.46682 12.0594C3.49056 12.0594 3.60924 11.9407 3.68045 11.8695C4.13143 11.1574 4.53497 10.469 4.93848 9.73322C5.00969 9.54333 5.1996 9.49586 5.34199 9.49586H6.78991C7.00353 9.49586 7.12222 9.54333 7.19342 9.75696C7.38331 10.4928 7.64443 11.1574 7.85806 11.8695C7.97674 12.2018 7.97674 12.2018 8.30902 12.1306C8.45146 12.1306 8.64134 12.0594 8.78376 12.0119C9.32971 11.822 9.82817 11.7983 10.3029 12.1781C10.4453 12.273 10.564 12.2018 10.6352 12.1306L11.4185 11.1337C11.4897 10.9438 11.6321 10.9438 11.7745 11.0625C12.1543 11.2049 12.5579 11.3948 12.9613 11.5372C13.08 11.6084 13.1513 11.6084 13.2699 11.5372C13.4124 11.4897 13.4836 11.3948 13.6022 11.3473C13.4836 11.2761 13.4124 11.2049 13.2699 11.1574C12.0831 10.6115 11.3473 9.68572 11.2998 8.38024C11.1099 6.17277 13.0088 4.5112 15.2163 4.91474C16.8541 5.17584 18.0409 6.83738 17.851 8.49892C17.7798 8.83123 17.6612 9.16353 17.5662 9.49586C17.5187 9.61454 17.5187 9.73322 17.6612 9.73322C17.8511 9.73322 17.9223 9.75696 18.0409 9.94682C18.2545 10.2791 18.5631 10.5402 18.7056 10.8725C18.9667 11.2761 19.2278 11.466 19.655 11.2761C19.8449 11.2049 19.9873 11.2761 20.106 11.466C20.3196 11.7271 20.6282 12.0119 20.8418 12.273C20.8893 12.3205 21.008 12.3205 21.0317 12.3917C21.0317 12.3205 21.1029 12.2018 21.1029 12.1781V11.822C20.8893 7.02729 16.9253 3.2532 11.8932 3.2532C10.8251 3.2532 9.63826 3.39561 8.45143 3.94154C5.19955 5.50814 3.34814 8.09541 3.08705 11.7983ZM3.13452 13.0563C3.22946 13.5073 3.27694 13.982 3.41935 14.4568C3.41935 14.5754 3.49056 14.5992 3.60924 14.5992C3.82286 14.6466 3.89407 14.5992 4.01275 14.3855C4.27387 13.531 4.5587 12.724 4.86727 11.8695C4.86727 11.822 4.89101 11.7271 4.93848 11.5372C5.00969 11.7271 5.08089 11.7983 5.08089 11.8695C5.27078 12.5341 5.53188 13.1987 5.72177 13.9345C5.79297 13.982 5.86418 14.0532 5.91165 14.1719C5.91165 14.1244 6.00662 13.982 6.00662 13.9345C6.1253 13.6022 6.24398 13.1987 6.3864 12.8664C6.45761 12.724 6.45761 12.6053 6.57629 12.3917C6.60002 12.5104 6.60002 12.5341 6.67123 12.6528C6.90859 13.2699 7.12221 13.8634 7.26463 14.5754C7.38331 14.789 7.52575 14.8365 7.71564 14.8365C8.52266 14.9315 9.30597 15.0502 10.0418 15.24C10.4453 15.3113 10.7776 15.5012 11.1099 15.7148C11.5609 15.9759 11.6321 16.4981 11.2998 16.9491C11.1099 17.1627 10.8251 17.3763 10.6352 17.6137C10.3504 17.7561 10.113 17.946 9.89935 18.1596C9.78069 18.2308 9.68575 18.3732 9.56707 18.4919C9.70949 18.5631 9.82817 18.6818 10.0181 18.6818C10.9675 18.8954 11.8932 19.0379 12.819 19.2752C13.9345 19.4888 15.0739 19.6787 16.1183 20.0585C16.2132 20.0823 16.4031 20.0585 16.4506 20.0111C17.1864 19.6075 17.8511 19.1565 18.4445 18.5631C19.7025 17.2339 20.557 15.6436 20.9605 13.8396C21.008 13.6022 20.9605 13.5073 20.7706 13.3174C20.557 13.0563 20.2959 12.8427 20.106 12.5341C19.8449 12.1306 19.5126 11.9407 18.9904 12.1781C18.848 12.1781 18.7056 12.1306 18.6343 12.0119C18.3258 11.6084 18.0409 11.2049 17.7798 10.8251C17.4475 10.3978 17.4475 10.3504 16.9253 10.7301C16.9253 10.8013 16.9253 10.8013 16.9016 10.8013C16.7829 10.8725 16.7354 10.8725 16.593 10.7301C16.4506 10.4928 16.2607 10.3504 16.1183 10.0893C16.0708 9.94684 15.9284 9.94684 15.8572 10.0655C15.5486 10.469 15.2163 10.8014 14.884 11.1337C14.884 11.1337 14.884 11.1574 14.8128 11.2049C15.2163 11.1574 15.4537 11.015 15.6673 10.8013C15.7385 10.7301 15.786 10.5402 15.8809 10.7301C16.1183 11.015 16.4031 11.1337 16.7354 11.2761C17.3763 11.4897 17.8985 11.9407 17.9935 12.6528C18.0409 12.7952 18.1122 12.9376 18.2308 12.9851C18.3732 13.1275 18.5631 13.175 18.6581 13.1987C19.2278 13.4598 19.655 13.8396 19.8449 14.3855C19.9873 14.9077 19.8924 15.2638 19.3702 15.5011C19.1803 15.5961 18.8954 15.6436 18.6581 15.7148C18.2308 15.8334 18.0409 16.0471 18.0409 16.4981V17.2814C17.9935 17.5662 17.8985 17.7086 17.6612 17.7086C17.4475 17.7086 17.2576 17.5662 17.2576 17.2814V16.4269C17.2576 16.1657 17.1864 15.9521 16.9253 15.8334C16.7829 15.7148 16.593 15.7148 16.4506 15.6436C16.1895 15.5961 16.1895 15.5961 16.1895 15.9047C16.1895 16.2845 16.1183 16.6405 16.1895 16.9728C16.1895 17.3763 15.9996 17.6849 15.6673 17.7561C15.5249 17.8985 15.335 17.946 15.1926 18.0172C14.4805 18.1596 13.8159 18.0884 13.1513 18.0409C12.8901 18.0409 12.6291 17.946 12.3442 17.8985C11.7508 17.6849 11.4897 17.2339 11.7745 16.6168C12.0119 16.1183 12.4154 15.7148 12.9613 15.5723C13.1275 15.4537 13.3411 15.3825 13.4836 15.3113C13.6734 15.24 13.7921 14.9315 13.9345 14.9315C14.077 14.9315 14.2194 15.24 14.4093 15.3113C14.6704 15.4537 14.9315 15.5724 15.2163 15.6436C15.4062 15.786 15.4537 15.786 15.4537 15.5011V14.5992C15.4537 14.1245 15.2163 13.8634 14.7416 13.7209C14.4805 13.6497 14.2194 13.6023 14.0058 13.5073C13.6022 13.27 13.4836 12.9851 13.6022 12.5341V12.273H13.4836C13.3411 12.3205 13.1513 12.4629 13.08 12.3917C12.6765 12.273 12.3442 12.1781 12.0119 12.0119C11.7745 11.8695 11.7508 11.9407 11.5609 12.0594C11.015 12.7952 10.4453 13.5073 9.89937 14.2432C9.56707 14.6467 9.68575 14.6467 9.18729 14.2669C9.04486 14.1719 9.04486 14.1245 9.18729 13.9346C9.37718 13.6497 9.68575 13.3174 9.89937 13.0563C9.97058 12.9851 10.0418 12.8664 9.89937 12.8427C9.70949 12.6528 9.56707 12.5341 9.30597 12.6528C8.78376 12.7952 8.30901 12.8664 7.71564 13.0563C7.45452 13.1275 7.45452 13.1275 7.33584 12.8427C7.19342 12.1781 7.00353 11.5372 6.78991 10.8726C6.52879 10.0655 6.7187 10.208 5.86418 10.208C5.60309 10.1605 5.46067 10.2792 5.34199 10.4691C4.93848 11.1574 4.5587 11.822 4.20264 12.5341C4.08396 12.724 3.94154 12.8427 3.75168 12.8427C3.56177 12.7952 3.46682 12.8427 3.27694 12.8427C3.15826 12.8427 3.13452 12.8664 3.13452 13.0563ZM3.79913 15.6436C4.20264 16.5693 4.60617 17.3763 5.27081 18.0409C7.90553 20.8655 11.015 21.7913 14.7416 20.7469C14.884 20.7469 15.0739 20.6757 15.2163 20.6045V20.5332C15.1214 20.4858 15.0027 20.4858 14.9315 20.4146C13.4836 20.1535 12.0831 19.8212 10.6352 19.5601C10.1605 19.4177 9.70949 19.3464 9.30597 19.1565C8.78376 19.0141 8.64134 18.4919 8.97365 18.0172C9.04486 17.946 9.11606 17.8273 9.23477 17.7561C9.49586 17.495 9.82817 17.2814 10.113 16.9728C10.3504 16.9016 10.4928 16.7117 10.6827 16.5693C10.7776 16.4269 10.7776 16.3082 10.6352 16.237C10.4453 16.1658 10.3029 15.9759 10.113 15.9759C9.32971 15.8334 8.64134 15.7148 7.85806 15.5723C7.66817 15.5723 7.66817 15.5961 7.5732 15.7148C7.38331 16.1658 7.00353 16.237 6.6 16.237C6.24398 16.2845 5.86418 16.1658 5.55561 15.8334C5.55561 15.7148 5.55561 15.6436 5.53188 15.5723C5.46067 15.5011 5.38946 15.4537 5.34199 15.4537C4.89101 15.3825 4.46376 15.3825 4.01275 15.3825C3.68045 15.3825 3.68045 15.3825 3.79915 15.6436L3.79913 15.6436ZM4.79606 14.3855C4.67738 14.5991 4.79606 14.6466 4.93848 14.6466C5.1996 14.6466 5.22331 14.5992 5.12837 14.3855C5.12837 14.2668 5.00969 14.1244 4.93848 13.982C4.89101 14.1244 4.86727 14.2669 4.79606 14.3855ZM6.24398 7.09847C6.24398 5.98288 7.12222 4.91472 8.45146 4.91472C9.89937 4.96221 10.7064 6.05409 10.6827 7.16968C10.6827 8.38024 9.68575 9.40092 8.45146 9.40092C7.19342 9.35344 6.24398 8.38024 6.24398 7.09847ZM6.3864 15.2638C6.33893 15.4537 6.3864 15.5011 6.57629 15.5011C6.78991 15.5011 6.86112 15.4537 6.78991 15.24C6.7187 15.1214 6.67123 14.9315 6.60002 14.7891C6.52882 14.9315 6.45761 15.1214 6.3864 15.2638ZM6.93233 7.16968C6.93233 7.953 7.64441 8.6176 8.45146 8.6176C9.30597 8.6176 9.97058 7.95299 9.97058 7.09847C9.97058 6.31519 9.30597 5.65056 8.45146 5.65056C7.64443 5.65056 6.93233 6.31519 6.93233 7.16968ZM12.4866 16.7592C12.3442 16.9728 12.4154 17.1627 12.6765 17.2339C13.08 17.2814 13.4598 17.3051 13.8159 17.3763C14.2669 17.3051 14.6704 17.3051 15.0739 17.2339C15.4537 17.1627 15.5249 16.9728 15.2638 16.6405C15.2163 16.6168 15.1926 16.5693 15.1214 16.4981C14.5517 15.9759 13.5548 15.9522 12.8902 16.3794C12.7715 16.4981 12.6291 16.6168 12.4866 16.7592ZM12.5579 6.5051C11.4185 8.02423 12.1543 10.208 14.0058 10.6115C14.2194 10.6827 14.3381 10.6115 14.4805 10.4691C14.9315 9.94687 15.4537 9.42467 15.8809 8.94993C16.0708 8.76004 16.1895 8.76004 16.2607 8.94993C16.3319 9.09235 16.4506 9.21105 16.5456 9.40094C16.6642 9.49588 16.7354 9.42467 16.7829 9.35347C16.8541 9.28224 16.8541 9.21103 16.9016 9.16356C17.59 7.4308 16.4031 5.62684 14.4093 5.62684C13.7447 5.62684 13.08 5.91167 12.5579 6.5051ZM14.4093 12.5104C14.2194 12.724 14.2669 12.8664 14.5517 12.9377C14.9315 12.9851 15.4062 13.0563 15.786 13.1275C16.0708 13.0563 16.2607 13.0563 16.5218 13.0563C16.593 13.0563 16.7354 12.9851 16.9016 12.9851C17.3288 12.8664 17.3763 12.724 17.0677 12.3205C17.0677 12.273 16.9965 12.273 16.9965 12.2018C16.5218 11.822 15.9996 11.7271 15.4062 11.822C15.0027 11.8695 14.5992 12.1306 14.4093 12.5104ZM16.2607 14.4568C16.1183 14.6467 16.1895 14.8366 16.4506 14.9077C16.9016 14.9315 17.2576 14.979 17.7086 15.0502C17.9222 15.0502 18.1834 14.979 18.3732 14.979C18.5157 14.979 18.6344 14.9315 18.7056 14.9315C19.2278 14.8366 19.299 14.6467 18.9667 14.2669C18.8954 14.1719 18.848 14.1245 18.7056 14.0532C18.2308 13.6497 17.2339 13.6023 16.6642 14.0532C16.5218 14.1719 16.4031 14.2669 16.2607 14.4568Z" fill="#FF0055"/>
</g>
<defs>
<clipPath id="clip0_31_1282">
<rect width="24" height="24" fill="white"/>
</clipPath>
</defs>
</svg>
