<svg width="24" height="24" viewBox="0 0 24 24" fill="none" xmlns="http://www.w3.org/2000/svg">
<g id="crypto / enjin" clip-path="url(#clip0_2035_61)">
<path id="Vector" d="M0.119995 12.012C0.119995 5.41332 5.43696 0.120117 12.0119 0.120117C18.5631 0.120117 23.8801 5.46079 23.8801 11.9883C23.8801 18.587 18.5394 23.8802 12.0119 23.8802C5.41319 23.8802 0.119995 18.5395 0.119995 12.012ZM4.60617 14.8841C4.84353 16.8543 5.7455 17.8512 7.6919 17.9699C11.0625 18.136 14.4568 18.136 17.8985 18.136C18.6344 18.136 19.56 17.9699 19.4651 16.9254C19.3227 15.9048 18.4207 16.1184 17.8036 16.1184C14.884 16.0947 12.0357 16.1184 9.11606 15.9523C7.57319 15.8336 7.02727 14.9316 7.33584 13.27H18.0172C18.7293 13.27 19.5126 13.3413 19.5126 12.2731C19.4651 11.205 18.6818 11.3237 17.9697 11.3237H7.28836C7.09848 9.13992 8.14288 8.6652 10.7064 8.6652H18.0884C18.6818 8.6652 19.3227 8.6652 19.4651 7.83444C19.5126 7.00365 18.9666 6.76629 18.2783 6.71882C16.9016 6.64761 15.5011 6.57641 14.1007 6.57641C12.0356 6.57641 9.94684 6.57641 7.85805 6.79003C5.84044 7.00365 4.84353 8.00059 4.60617 9.9707C4.44002 11.6322 4.48749 13.2463 4.60617 14.8841Z" fill="#7866D5"/>
</g>
<defs>
<clipPath id="clip0_2035_61">
<rect width="24" height="24" fill="white"/>
</clipPath>
</defs>
</svg>
