<svg width="24" height="24" viewBox="0 0 24 24" fill="none" xmlns="http://www.w3.org/2000/svg">
<g id="crypto / eos" clip-path="url(#clip0_2035_2888)">
<path id="Vector" d="M9.40092 11.0626L8.73628 9.09245L11.6084 5.36585V7.62079L9.40092 11.0626ZM0.119995 12.0002C0.119995 9.85677 0.658795 7.85817 1.73407 6.00674C2.79508 4.21939 4.21927 2.79521 6.00662 1.73419C7.85805 0.658917 9.85903 0.120117 12.0119 0.120117C14.1482 0.120117 16.142 0.658917 17.9935 1.73419C19.7808 2.79521 21.205 4.21939 22.266 6.00674C23.3413 7.85817 23.8801 9.85677 23.8801 12.0002C23.8801 14.1436 23.3413 16.1422 22.266 17.9936C21.205 19.7809 19.7808 21.2051 17.9935 22.2661C16.142 23.3414 14.1434 23.8802 12 23.8802C9.85665 23.8802 7.85805 23.3414 6.00662 22.2661C4.21927 21.2051 2.79508 19.7809 1.73407 17.9936C0.658819 16.1422 0.119995 14.1436 0.119995 12.0002ZM5.93541 16.5931C5.91878 16.6715 5.92828 16.7545 5.95915 16.8424C5.98999 16.9302 6.04696 16.9895 6.1253 17.0204L11.7983 20.1773C11.9241 20.2414 12.0594 20.2414 12.2018 20.1773L17.8748 17.0204C17.9531 16.9895 18.0101 16.9302 18.0409 16.8424C18.0718 16.7545 18.0813 16.6715 18.0647 16.5931L16.0708 8.92629C16.0542 8.87882 16.0305 8.83135 15.9996 8.78388L12.3205 3.94166C12.2422 3.83011 12.1353 3.77551 12 3.77551C11.8647 3.77551 11.7579 3.83011 11.6796 3.94166L7.953 8.7839C7.92213 8.83135 7.8984 8.87882 7.88179 8.92629L5.93541 16.5931ZM7.051 16.2846L9.18727 12.914L10.3504 16.2846H7.051ZM7.33584 14.3382L8.3328 10.4217L8.85499 11.9408L7.33584 14.3382ZM7.88179 17.0916H10.6352L11.2761 18.9668L7.88179 17.0916ZM9.73322 12.0358L12.0119 8.47531L14.2431 12.012L12.7715 16.2846H11.2049L9.73322 12.0358ZM11.4897 17.0916H12.5104L11.9882 18.587L11.4897 17.0916ZM12.3917 7.62079V5.36585L15.24 9.09245L14.5754 11.0388L12.3917 7.62079ZM12.7003 18.9668L13.3649 17.0916H16.1183L12.7003 18.9668ZM13.626 16.2845L14.7891 12.8665L16.9491 16.2846L13.626 16.2845ZM15.1214 11.8933L15.6198 10.4217L16.6405 14.3145L15.1214 11.8933Z" fill="#333333"/>
</g>
<defs>
<clipPath id="clip0_2035_2888">
<rect width="24" height="24" fill="white"/>
</clipPath>
</defs>
</svg>
