<svg width="24" height="24" viewBox="0 0 24 24" fill="none" xmlns="http://www.w3.org/2000/svg">
<g clip-path="url(#clip0_30_1155)">
<path d="M18.0113 1.73568C19.8004 2.79775 21.2189 4.22335 22.2643 6.01248C23.3406 7.84912 23.88 9.84496 23.88 12C23.88 14.155 23.3406 16.158 22.2643 18.0113C21.2189 19.8004 19.8004 21.2189 18.0113 22.2643C16.158 23.3406 14.155 23.88 12 23.88C9.84496 23.88 7.84912 23.3406 6.01248 22.2643C4.22335 21.2189 2.79775 19.8004 1.73568 18.0113C0.659347 16.158 0.119995 14.155 0.119995 12C0.119995 9.84496 0.659347 7.84912 1.73568 6.01248C2.79775 4.22335 4.22335 2.79775 6.01248 1.73568C7.84912 0.659347 9.84496 0.119995 12 0.119995C14.155 0.119995 16.158 0.659347 18.0113 1.73568ZM7.12919 12.2376L11.8574 15.0175V10.1705L7.12919 12.2376ZM7.15296 13.2355L11.8574 19.8883V15.9917L7.15296 13.2355ZM7.27175 11.8337L11.8574 9.83784V4.1592L7.27175 11.8337ZM12.1663 19.8883L16.847 13.2355L12.1663 15.9917V19.8883ZM12.1663 15.0175L16.8946 12.2376L12.1663 10.1705V15.0175ZM12.1663 9.83784L16.7995 11.8574L12.1663 4.1592V9.83784Z" fill="#2E3192"/>
</g>
<defs>
<clipPath id="clip0_30_1155">
<rect width="24" height="24" fill="white"/>
</clipPath>
</defs>
</svg>
