<svg width="25" height="24" viewBox="0 0 25 24" fill="none" xmlns="http://www.w3.org/2000/svg">
<g id="crypto / filecoin" clip-path="url(#clip0_2035_440)">
<path id="Vector" d="M12.5119 0.120117C5.86572 0.120117 0.619995 5.50826 0.619995 12.0002C0.619995 18.6345 6.00814 23.8802 12.5 23.8802C19.1344 23.8802 24.3801 18.492 24.3801 12.0002C24.3801 5.43705 19.0631 0.120117 12.5119 0.120117ZM7.00508 18.492C7.00508 17.6613 7.90704 17.6138 8.31058 18.5633C8.52418 18.9905 9.07013 19.0617 9.59232 18.7294C10.4943 17.8274 10.9216 15.62 11.4438 13.1276V12.8903L8.453 12.3918L8.5242 11.5848L11.6574 11.9645L12.0134 10.2793L8.80904 9.75708L8.97519 8.90256L12.2983 9.42477C12.4407 9.02124 12.4407 8.73641 12.5594 8.47531C13.1765 5.95925 14.3871 4.03661 16.4521 4.20276C17.3541 4.20276 18.351 5.12849 17.7576 5.62694C17.2829 6.14916 16.9269 5.67441 16.5708 5.15222C15.9299 4.20278 15.028 4.96233 14.6244 6.05421C14.2921 7.16981 14.0073 8.38037 13.6038 9.63837L16.5708 10.0419L16.4521 10.9676L13.4851 10.4454L13.0816 12.2256L16.3097 12.7241L16.0486 13.5311L12.9629 13.1276C12.7255 13.7685 12.5594 14.5518 12.2983 15.2402C12.0134 16.0235 11.7761 16.7356 11.4438 17.5188C10.9928 18.492 10.2807 19.2279 9.23628 19.3466C8.42926 19.5127 7.00508 19.0142 7.00508 18.492Z" fill="#0090FF"/>
</g>
<defs>
<clipPath id="clip0_2035_440">
<rect width="24" height="24" fill="white" transform="translate(0.5)"/>
</clipPath>
</defs>
</svg>
