<svg width="25" height="24" viewBox="0 0 25 24" fill="none" xmlns="http://www.w3.org/2000/svg">
<g id="crypto / litecoin" clip-path="url(#clip0_2035_37)">
<path id="Vector" d="M18.4935 1.73419C20.2974 2.79521 21.7216 4.21939 22.766 6.00674C23.8413 7.85817 24.3801 9.85915 24.3801 12.012C24.3801 14.1649 23.8413 16.1587 22.766 17.9936C21.7216 19.7976 20.2974 21.2217 18.4935 22.2661C16.6586 23.3414 14.6648 23.8802 12.5119 23.8802C10.359 23.8802 8.35805 23.3414 6.50662 22.2661C4.71927 21.2217 3.29508 19.7976 2.23407 17.9936C1.15882 16.1588 0.619995 14.1649 0.619995 12.012C0.619995 9.85915 1.1588 7.85817 2.23407 6.00674C3.29508 4.21939 4.71927 2.79521 6.50662 1.73419C8.35805 0.658917 10.359 0.120117 12.5119 0.120117C14.6648 0.120117 16.6586 0.658917 18.4935 1.73419ZM7.40859 15.169L8.88024 14.1483L8.12069 17.7562H17.0693L17.5915 15.3351H11.42L12.1321 11.9171L15.7638 9.42477L16.2148 7.38343L12.5594 9.89949L13.6038 4.96233H10.8029L9.28376 12.1307L7.76463 13.1988L7.40859 15.169Z" fill="#345C9D"/>
</g>
<defs>
<clipPath id="clip0_2035_37">
<rect width="24" height="24" fill="white" transform="translate(0.5)"/>
</clipPath>
</defs>
</svg>
