<svg width="149" height="30" viewBox="0 0 149 30" fill="none" xmlns="http://www.w3.org/2000/svg">
<g id="logo">
<path id="Vector" fill-rule="evenodd" clip-rule="evenodd" d="M34.3216 5.14381H37.8606V14.3934L47.3022 5.14381H52.006L43.5856 13.2404L52.4782 26.9196H47.7748L40.8836 15.8388L37.8606 18.7461V26.9196H34.3216V5.14381ZM54.4049 5.14381H57.903V8.90534C58.1893 8.17304 58.8916 7.28227 60.0095 6.23149C61.1282 5.18149 62.4167 4.65611 63.8759 4.65611C63.944 4.65611 64.0601 4.66304 64.2238 4.67611C64.3875 4.68996 64.6669 4.71689 65.0627 4.75765V8.62111C64.844 8.57995 64.6433 8.55303 64.4587 8.53957C64.2748 8.52611 64.0736 8.51919 63.8554 8.51919C62.0008 8.51919 60.5756 9.11227 59.5804 10.298C58.5848 11.4842 58.0875 12.8496 58.0875 14.3949V26.9196H54.4049V5.14381ZM71.0268 23.6281C71.8046 24.2369 72.7248 24.5408 73.7886 24.5408C75.0836 24.5408 76.3385 24.2431 77.552 23.6477C79.5975 22.6596 80.6205 21.0427 80.6205 18.7962V15.8527C80.1721 16.138 79.5927 16.3762 78.8854 16.5666C78.1773 16.757 77.4839 16.8927 76.8032 16.9739L74.5779 17.2581C73.2437 17.4343 72.2415 17.7115 71.5689 18.09C70.4302 18.7258 69.861 19.74 69.861 21.1327C69.861 22.1877 70.2499 23.0192 71.0268 23.6281ZM78.7798 13.7415C79.626 13.6335 80.1906 13.2816 80.4777 12.6857C80.641 12.3592 80.7227 11.89 80.7227 11.2777C80.7227 10.0258 80.2769 9.11769 79.3858 8.55269C78.4946 7.98808 77.2184 7.70576 75.5581 7.70576C73.6391 7.70576 72.2779 8.22346 71.4749 9.25884C71.026 9.83115 70.7335 10.6827 70.5973 11.8131H67.1608C67.2293 9.12153 68.1038 7.24884 69.7862 6.19538C71.4683 5.14231 73.4197 4.61538 75.6396 4.61538C78.2136 4.61538 80.3052 5.10308 81.9118 6.07923C83.506 7.05499 84.3031 8.57308 84.3031 10.6338V23.1793C84.3031 23.5592 84.3816 23.8638 84.5384 24.0938C84.6936 24.3242 85.0248 24.4388 85.5302 24.4388C85.6931 24.4388 85.8768 24.4289 86.0823 24.4085C86.2866 24.3885 86.5045 24.358 86.7371 24.3173V27.0216C86.164 27.1838 85.7278 27.2858 85.4283 27.3262C85.1265 27.3669 84.7191 27.3869 84.1994 27.3869C82.9317 27.3869 82.0124 26.94 81.4378 26.0454C81.1383 25.5712 80.9282 24.9003 80.8044 24.0331C80.0541 25.0093 78.9779 25.8557 77.5725 26.5742C76.1678 27.2923 74.6201 27.6516 72.9294 27.6516C70.8971 27.6516 69.2368 27.0389 67.9482 25.8138C66.6596 24.5888 66.0154 23.0558 66.0154 21.2143C66.0154 19.1973 66.6493 17.6334 67.9176 16.5239C69.1857 15.4139 70.8495 14.7292 72.909 14.4719L78.7798 13.7415ZM89.135 5.14381H92.674V14.3934L102.116 5.14381H106.819L98.3994 13.2404L107.292 26.9196H102.588L95.6977 15.8388L92.674 18.7461V26.9196H89.135V5.14381ZM123.631 14.2935C123.482 12.7073 123.137 11.4404 122.596 10.4912C121.595 8.72924 119.925 7.84808 117.585 7.84808C115.909 7.84808 114.503 8.45462 113.367 9.66769C112.231 10.8812 111.629 12.4227 111.562 14.2935H123.631ZM122.312 5.74384C123.762 6.46923 124.867 7.40808 125.625 8.55962C126.358 9.65769 126.845 10.9385 127.089 12.4023C127.306 13.4057 127.415 15.005 127.415 17.2012H111.48C111.548 19.4166 112.069 21.1938 113.043 22.5323C114.017 23.8711 115.526 24.5408 117.568 24.5408C119.476 24.5408 120.999 23.9077 122.135 22.6411C122.771 21.9061 123.222 21.0554 123.487 20.0881H127.108C127.013 20.8881 126.695 21.7792 126.157 22.7619C125.617 23.7447 125.017 24.5481 124.354 25.1708C123.245 26.2558 121.87 26.9873 120.233 27.3669C119.354 27.5835 118.358 27.6923 117.249 27.6923C114.539 27.6923 112.241 26.7058 110.358 24.7338C108.473 22.7619 107.532 20 107.532 16.4484C107.532 12.9516 108.48 10.1119 110.378 7.92962C112.275 5.74731 114.756 4.65616 117.819 4.65616C119.364 4.65616 120.861 5.01847 122.312 5.74384ZM130.651 5.14381H134.148V8.23457C135.186 6.96073 136.283 6.04573 137.443 5.48957C138.601 4.93419 139.89 4.65611 141.309 4.65611C144.418 4.65611 146.518 5.73381 147.609 7.88881C148.209 9.06803 148.509 10.7557 148.509 12.9515V26.9196H144.766V13.1957C144.766 11.8673 144.567 10.7961 144.172 9.98304C143.518 8.62803 142.332 7.94996 140.613 7.94996C139.74 7.94996 139.024 8.03804 138.465 8.21418C137.455 8.51265 136.569 9.10881 135.806 10.0034C135.191 10.7219 134.794 11.4642 134.609 12.2296C134.424 12.9958 134.333 14.09 134.333 15.513V26.9196H130.651V5.14381Z" fill="white"/>
<path id="Vector_2" fill-rule="evenodd" clip-rule="evenodd" d="M0.528469 18.3667V24.5628C0.528469 25.7038 1.44059 26.6271 2.56223 26.6271C3.68505 26.6271 4.60151 25.7038 4.60151 24.5628V18.3667C4.60151 17.224 5.5089 16.2991 6.63645 16.2991C7.76006 16.2991 8.6714 17.224 8.6714 18.3667V24.5628C8.6714 25.7038 9.58351 26.6271 10.7063 26.6271C11.8332 26.6271 12.7448 25.7038 12.7448 24.5628V18.3667C12.7448 17.224 13.6562 16.2991 14.7794 16.2991C15.9073 16.2991 16.8195 17.224 16.8195 18.3667V24.5628C16.8195 25.7038 17.7311 26.6271 18.8528 26.6271C19.9756 26.6271 20.8877 25.7038 20.8877 24.5628V18.3667C20.8877 17.224 21.7995 16.2991 22.9271 16.2991C24.0502 16.2991 24.962 17.224 24.962 18.3667V24.5628C24.962 25.7038 25.874 26.6271 27.0001 26.6271C28.1232 26.6271 29.035 25.7038 29.035 24.5628V18.3667C29.035 10.3806 22.6522 3.90522 14.7794 3.90522C6.90701 3.90522 0.528469 10.3806 0.528469 18.3667Z" fill="white"/>
</g>
</svg>
