<svg width="25" height="24" viewBox="0 0 25 24" fill="none" xmlns="http://www.w3.org/2000/svg">
<g id="crypto / lumen" clip-path="url(#clip0_2035_366)">
<path id="Vector" d="M12.5119 0.120117C5.86572 0.120117 0.619995 5.50826 0.619995 12.0002C0.619995 18.6345 6.00814 23.8802 12.5 23.8802C19.1344 23.8802 24.3801 18.492 24.3801 12.0002C24.3801 5.43705 19.0631 0.120117 12.5119 0.120117ZM4.27539 17.0679C4.27539 16.9967 4.29915 16.9729 4.37033 16.9017C6.05561 16.0472 7.76465 15.1927 9.42617 14.3382C11.2776 13.365 13.1291 12.463 14.933 11.5136C16.3334 10.8252 17.7339 10.0894 19.1106 9.40104C19.6803 9.09245 20.2262 8.83135 20.7959 8.54652C20.7959 8.54652 20.8434 8.54652 20.8671 8.52278V9.82829C20.8671 9.89949 20.8671 9.94697 20.7959 9.94697C20.5823 10.0894 20.3924 10.1606 20.1787 10.2793C19.7278 10.5878 19.5379 11.0151 19.6091 11.5848C19.6565 12.4393 19.5379 13.2701 19.2768 14.1008C18.9445 15.169 18.3748 16.1184 17.5915 16.9017C16.9981 17.5663 16.2622 18.0411 15.4789 18.4208C14.4108 18.9193 13.3189 19.1092 12.1796 19.038C10.8266 18.943 9.61606 18.5158 8.50047 17.7562C8.50047 17.7562 8.50047 17.685 8.47671 17.685C8.64288 17.5901 8.83277 17.4951 8.99892 17.4239C9.23628 17.3052 9.44991 17.1865 9.711 17.0679H9.82971C10.4706 17.4239 11.1589 17.6375 11.8948 17.685C12.5356 17.8037 13.2003 17.78 13.8174 17.6138C14.6956 17.4239 15.4789 17.0679 16.1673 16.4982C17.1405 15.6911 17.8051 14.718 18.1374 13.5311C18.2798 12.914 18.3273 12.2969 18.3036 11.7035C18.3036 11.5373 18.2798 11.4186 18.2561 11.2762L4.29915 18.3971V18.2309C4.29915 17.8511 4.29915 17.4476 4.27539 17.0679ZM4.29915 15.525V14.718C4.29915 14.5281 4.27539 14.3619 4.29915 14.172C4.29915 14.1245 4.32286 14.1008 4.37033 14.0771C4.53648 13.9584 4.7976 13.8397 4.98749 13.721C5.391 13.4599 5.58089 13.0802 5.58089 12.6292V11.5373C5.60463 10.7065 5.84201 9.89949 6.17429 9.11618C6.72024 7.92938 7.551 6.95618 8.66662 6.19663C9.52112 5.62694 10.4706 5.24719 11.4675 5.08101C12.322 4.9386 13.129 4.9386 13.9361 5.15222C14.9093 5.31837 15.8587 5.69815 16.642 6.31531H16.7132C16.286 6.52891 15.8587 6.76629 15.4315 6.97992C15.4315 7.00368 15.3128 6.97992 15.2891 6.95618C14.7906 6.69506 14.2447 6.48146 13.675 6.36278C12.6306 6.14916 11.6337 6.2441 10.613 6.62388C8.99892 7.21728 7.83583 8.35663 7.19496 9.99444C6.88639 10.8252 6.76772 11.7035 6.83892 12.5579C6.8864 12.6292 6.88639 12.6767 6.91013 12.7716C11.5625 10.3742 16.2148 8.02433 20.8671 5.62694V7.00365C20.8671 7.05113 20.8671 7.07486 20.7959 7.12233C19.3717 7.85817 17.9 8.57025 16.4521 9.30609C14.7194 10.2081 12.9629 11.1101 11.2064 12.012C9.87718 12.6767 8.57168 13.3413 7.2187 14.0296C6.26926 14.5043 5.34353 14.979 4.37033 15.4775C4.37033 15.525 4.32286 15.525 4.29912 15.525H4.29915Z" fill="#3E1BDB"/>
</g>
<defs>
<clipPath id="clip0_2035_366">
<rect width="24" height="24" fill="white" transform="translate(0.5)"/>
</clipPath>
</defs>
</svg>
