<svg width="24" height="24" viewBox="0 0 24 24" fill="none" xmlns="http://www.w3.org/2000/svg">
<g id="crypto / makerdao" clip-path="url(#clip0_2035_3718)">
<path id="Vector" d="M11.9882 23.8802H12.0119C14.1482 23.8802 16.142 23.3414 17.9934 22.2661C19.7808 21.2051 21.205 19.7809 22.266 17.9936C23.3413 16.1422 23.8801 14.1436 23.8801 12.0002C23.8801 9.85677 23.3413 7.85817 22.266 6.00674C21.205 4.21939 19.7808 2.79521 17.9935 1.73419C16.142 0.658917 14.1434 0.120117 12 0.120117C9.85665 0.120117 7.85805 0.658917 6.00662 1.73419C4.21927 2.79521 2.79508 4.21939 1.73407 6.00674C0.658819 7.85817 0.119995 9.85677 0.119995 12.0002C0.119995 14.1436 0.658795 16.1422 1.73407 17.9936C2.79508 19.7809 4.21927 21.2051 6.00662 22.2661C7.85805 23.3414 9.8519 23.8802 11.9882 23.8802ZM4.5112 16.1184V7.71576C4.5112 7.40717 4.67738 7.05113 4.91474 6.90871C5.17584 6.74256 5.50814 6.71882 5.88794 7.02739C6.74243 7.71576 7.59696 8.35663 8.47519 9.02124C9.40092 9.70961 10.3029 10.3979 11.2049 11.1101C11.5609 11.4186 11.6796 11.5373 11.6796 11.8933V16.1896C11.6796 16.4745 11.6796 17.0916 11.1811 17.0916H10.8963C10.2317 17.0916 10.3504 16.4507 10.3504 16.1184V12.4393C10.3504 12.2494 10.3029 12.0595 10.1842 11.9408C9.09232 11.1101 8.26156 10.4929 7.62069 10.0182C6.60002 9.25862 6.10156 8.87885 5.84044 8.66522V16.0235C5.84044 16.332 5.95915 17.0916 5.27078 17.0916H4.98595C4.51123 17.0916 4.51123 16.4745 4.51123 16.1184L4.5112 16.1184ZM12.5816 16.0235V12.107C12.5816 11.6085 12.7952 11.2525 13.2462 10.9202C14.2194 10.2081 15.2163 9.40104 16.2132 8.6652L18.4207 7.02739C18.8005 6.74256 19.1091 6.64761 19.3939 6.88497C19.7737 7.14609 19.7737 7.4309 19.7737 7.71576V16.3083C19.7974 16.783 19.7262 17.0204 19.3939 17.0916H18.9192C18.5631 17.0441 18.5157 16.6406 18.5157 16.0235C18.4445 13.6498 18.4445 11.205 18.4445 8.68893C18.2783 8.78388 18.1359 8.90256 18.0172 8.9975C17.6612 9.28236 17.3051 9.54345 16.9491 9.80455C16.0946 10.4692 15.2163 11.1813 14.2669 11.7747C14.0057 11.9408 13.9583 12.1544 13.9583 12.5579V16.1896C13.9583 16.8068 13.8871 17.0916 13.5073 17.0916H13.1038C12.4866 17.0916 12.5816 16.332 12.5816 16.0235Z" fill="#1AAB9B"/>
</g>
<defs>
<clipPath id="clip0_2035_3718">
<rect width="24" height="24" fill="white"/>
</clipPath>
</defs>
</svg>
