<svg width="24" height="24" viewBox="0 0 24 24" fill="none" xmlns="http://www.w3.org/2000/svg">
<g clip-path="url(#clip0_30_1205)">
<path d="M0.737131 15.7385C0.326491 14.5351 0.119995 13.2937 0.119995 12.0119C0.119995 9.85903 0.665923 7.85805 1.7578 6.00662C2.80221 4.21927 4.21924 2.80221 6.00662 1.7578C7.85805 0.665923 9.85903 0.119995 12.0119 0.119995C14.1648 0.119995 16.1586 0.665923 17.9935 1.7578C19.7808 2.80221 21.205 4.21924 22.266 6.00662C23.3413 7.85805 23.8801 9.85903 23.8801 12.0119C23.8801 13.2771 23.6831 14.5208 23.2867 15.7385H19.7262V5.76924L12.0119 13.4836L4.27387 5.76924V15.7385H0.737131ZM1.82901 18.1596H6.81364V11.8932L11.9644 17.044L17.1389 11.8457V18.1596H22.1711C21.11 19.8995 19.6954 21.2857 17.9223 22.3135C16.1017 23.3579 14.1316 23.8801 12.0119 23.8801C9.89224 23.8801 7.91263 23.3579 6.07783 22.3135C4.30471 21.2857 2.89003 19.8995 1.82901 18.1596Z" fill="#FF6601"/>
</g>
<defs>
<clipPath id="clip0_30_1205">
<rect width="24" height="24" fill="white"/>
</clipPath>
</defs>
</svg>
