<svg width="24" height="24" viewBox="0 0 24 24" fill="none" xmlns="http://www.w3.org/2000/svg">
<g clip-path="url(#clip0_30_1212)">
<path d="M20.4524 16.4491C20.4524 16.5199 20.4288 16.6144 20.4288 16.6853C20.3402 16.9418 20.1647 17.1592 19.9326 17.2997C19.2473 17.7014 18.5622 18.1031 17.8533 18.5048C17.3807 18.7883 16.8609 19.0955 16.3411 19.3554C16.2465 19.4263 16.1284 19.4972 15.963 19.4972C15.846 19.4735 15.7255 19.4735 15.6086 19.4972C15.4806 19.4979 15.356 19.4564 15.2541 19.3791C14.6162 19.0246 13.9782 18.6702 13.3639 18.2921C12.7968 17.9849 12.2297 17.6305 11.6626 17.3234C11.3318 17.087 11.1192 16.7799 11.1192 16.3782V14.9368C11.1192 14.9132 11.1192 14.8896 11.1664 14.8659C11.6863 14.5588 12.2296 14.2516 12.7495 13.9444C12.7732 13.9444 12.7732 13.9444 12.7968 13.9207V13.9916C12.7968 14.4169 12.8204 14.8422 12.7968 15.2912C12.7959 15.4403 12.8247 15.5881 12.8815 15.7261C12.9383 15.864 13.022 15.9892 13.1276 16.0945C13.1985 16.189 13.3402 16.2599 13.4348 16.3308C14.0255 16.6616 14.6162 17.016 15.2306 17.3468C15.3723 17.465 15.5614 17.4886 15.7268 17.5122C15.9867 17.5359 16.1993 17.4886 16.3884 17.3468C16.9791 16.9924 17.5934 16.638 18.1841 16.2836C18.4913 16.0946 18.6803 15.8111 18.7039 15.4803C18.7218 15.427 18.7298 15.371 18.7276 15.3149V13.1174C18.7276 12.7157 18.5385 12.3849 18.1841 12.1723C17.5461 11.7942 16.9318 11.4398 16.2939 11.0854C15.9394 10.8727 15.5614 10.8727 15.2307 11.0618C14.829 11.298 14.4509 11.5107 14.0965 11.7234C13.2695 12.1959 12.4425 12.6921 11.5919 13.1647C10.8359 13.6136 10.0561 14.0863 9.2763 14.5115C9.06366 14.6296 8.87464 14.7714 8.6619 14.8659C8.28385 15.0786 7.9059 15.1022 7.50412 14.8659C6.46447 14.2515 5.40119 13.6372 4.31428 13.0229C4.17251 12.9284 4.00708 12.8339 3.84172 12.7394C3.55818 12.5267 3.41641 12.2195 3.41641 11.8651V7.68292C3.41641 7.28125 3.60544 6.99769 3.95987 6.78505C4.33792 6.57239 4.71587 6.33611 5.14127 6.09983C5.94464 5.62727 6.77164 5.15469 7.57499 4.68213C7.64588 4.61123 7.7404 4.61123 7.81129 4.56397H8.47288C8.54377 4.61123 8.63828 4.63487 8.70916 4.68213C9.67792 5.2492 10.6703 5.83991 11.6627 6.40701C11.8754 6.52513 12.088 6.64329 12.2771 6.78505C12.5843 6.99769 12.7733 7.30487 12.7733 7.68292V9.14788C12.7733 9.19513 12.7733 9.21877 12.7261 9.21877C12.1826 9.52597 11.6629 9.83317 11.1193 10.1639C11.1012 10.1656 11.0843 10.1741 11.0721 10.1875V9.21877C11.0721 9.00611 11.0721 8.81709 11.0484 8.62806C11.0484 8.36814 10.9539 8.17912 10.7885 7.96648C10.694 7.84833 10.5522 7.77743 10.4105 7.70656C9.93791 7.39936 9.44171 7.11585 8.96915 6.83231C8.82738 6.7378 8.70923 6.64329 8.56746 6.59603C8.21303 6.43062 7.85862 6.43062 7.50426 6.64329C6.91355 6.99769 6.29922 7.35213 5.68487 7.70649C5.30682 7.94277 5.1178 8.24994 5.1178 8.69889V10.9909C5.16505 11.3689 5.35408 11.6525 5.63761 11.8179C6.20468 12.1487 6.74814 12.4795 7.2916 12.8339C7.43336 12.9048 7.57513 13.0229 7.76418 13.0465C8.04772 13.141 8.35487 13.141 8.63843 12.9757C9.1346 12.6921 9.60719 12.385 10.1034 12.1014C10.5522 11.8179 11.0485 11.5343 11.4975 11.2744C11.9228 11.0381 12.3717 10.8018 12.7734 10.5656C13.5531 10.1166 14.3329 9.64396 15.1126 9.19516C15.2544 9.10065 15.3961 9.02977 15.5615 9.00613C15.6927 8.97162 15.8295 8.9643 15.9636 8.98462C16.0977 9.00494 16.2262 9.05247 16.3413 9.12429C16.7901 9.38418 17.2391 9.62049 17.6644 9.88029C18.4204 10.3292 19.153 10.7309 19.9091 11.1799C20.1927 11.3689 20.3817 11.6052 20.429 11.9359C20.4481 11.9722 20.4563 12.0132 20.4526 12.054L20.4524 16.4491ZM0.131989 12.0778C0.131989 18.5756 5.40112 23.892 11.9698 23.892C18.4676 23.892 23.784 18.6229 23.784 12.0542C23.784 5.55637 18.4912 0.23999 11.9698 0.23999C5.42473 0.23999 0.131989 5.50912 0.131989 12.0778Z" fill="#8248E5"/>
</g>
<defs>
<clipPath id="clip0_30_1212">
<rect width="24" height="24" fill="white"/>
</clipPath>
</defs>
</svg>
