<svg width="24" height="24" viewBox="0 0 24 24" fill="none" xmlns="http://www.w3.org/2000/svg">
<g id="crypto / ripple" clip-path="url(#clip0_2035_412)">
<path id="Vector" d="M0.119995 12.0119C0.119995 18.5394 5.41319 23.8801 12.0119 23.8801C18.5394 23.8801 23.8801 18.5869 23.8801 11.9882C23.8801 5.46067 18.5631 0.119995 12.0119 0.119995C5.43696 0.119995 0.119995 5.41319 0.119995 12.0119ZM5.27078 17.8511V17.7561C6.33892 16.688 7.40704 15.691 8.52266 14.5991C8.78378 14.3143 9.09232 13.982 9.40092 13.6972C11.0862 12.0357 13.531 12.0357 15.24 13.6972C16.5455 15.0027 17.8748 16.3319 19.204 17.6137C19.2278 17.6849 19.3227 17.7561 19.3702 17.8036V17.8511C18.7768 17.8511 18.1121 17.8985 17.4475 17.8511C17.3288 17.8511 17.2102 17.8036 17.1627 17.6849C16.142 16.688 15.1451 15.7148 14.1244 14.7179C13.0563 13.6972 11.5847 13.6972 10.4928 14.7179C9.49586 15.7148 8.52266 16.688 7.45452 17.6849C7.38331 17.8036 7.19342 17.8511 7.051 17.8511C6.43387 17.8985 5.88792 17.8511 5.27078 17.8511ZM5.27078 6.22024V6.19648H7.19342C7.28836 6.19648 7.40704 6.26771 7.45454 6.31519C8.49892 7.3121 9.42465 8.30904 10.4216 9.23474C11.5847 10.3504 13.0563 10.3504 14.1956 9.23474C15.1926 8.30904 16.142 7.3121 17.1152 6.36266C17.2576 6.26771 17.3763 6.19651 17.5425 6.19651H19.3702C19.2752 6.26771 19.2278 6.36266 19.204 6.41011L15.0739 10.3979C13.531 11.917 11.0387 11.917 9.49586 10.3979C8.09541 8.9974 6.67123 7.64445 5.27078 6.22027V6.22024Z" fill="#1176A8"/>
</g>
<defs>
<clipPath id="clip0_2035_412">
<rect width="24" height="24" fill="white"/>
</clipPath>
</defs>
</svg>
