<svg width="24" height="24" viewBox="0 0 24 24" fill="none" xmlns="http://www.w3.org/2000/svg">
<g id="crypto / solana" clip-path="url(#clip0_2035_69)">
<path id="Vector" d="M12.0119 0.119995C5.36572 0.119995 0.119995 5.50814 0.119995 12C0.119995 18.6344 5.50814 23.8801 12 23.8801C18.6344 23.8801 23.8801 18.4919 23.8801 12C23.8801 5.43693 18.5631 0.119995 12.0119 0.119995ZM4.5587 11.1574C4.34508 10.9438 4.51123 10.564 4.79606 10.469C4.93848 10.4216 5.05716 10.4453 5.17584 10.4453H16.7354C16.9728 10.4453 17.1864 10.5165 17.3763 10.6827L19.1328 12.4154C19.2278 12.5104 19.2752 12.5579 19.299 12.6766C19.3702 13.0326 19.299 13.3174 18.9666 13.3412H7.07474C6.83738 13.3412 6.67123 13.3174 6.4576 13.1038L4.74856 11.4185C4.65364 11.3236 4.62991 11.2286 4.5587 11.1574ZM4.5587 8.57013C4.48749 8.30901 4.5587 8.14288 4.72485 7.97673L6.57628 6.03033C6.62375 5.98288 6.69496 5.95912 6.78991 5.86418H19.0616C19.4889 6.17277 19.4889 6.41013 19.1328 6.78991L17.3288 8.66508C17.1627 8.83123 17.0203 8.8787 16.8066 8.8787H5.05716C4.84353 8.8787 4.62993 8.83123 4.5587 8.57013ZM4.62991 17.1627C5.34199 16.5218 5.93539 15.8097 6.62375 15.1214C6.69496 15.0502 6.90859 15.0027 7.07474 15.0027H18.9192C19.1328 15.0502 19.2753 15.1214 19.3465 15.335C19.3939 15.5011 19.4177 15.6673 19.2278 15.8572L18.5157 16.5693C18.1359 16.9491 17.7561 17.2814 17.3763 17.6612C17.1627 17.8748 16.9728 17.9697 16.7355 17.9697L5.17586 17.9223C5.10465 17.9223 5.00971 17.9697 4.9385 17.9223C4.58246 17.6849 4.3451 17.4238 4.62993 17.1627H4.62991Z" fill="#D83AEB"/>
</g>
<defs>
<clipPath id="clip0_2035_69">
<rect width="24" height="24" fill="white"/>
</clipPath>
</defs>
</svg>
