<svg width="24" height="24" viewBox="0 0 24 24" fill="none" xmlns="http://www.w3.org/2000/svg">
<g id="crypto / sushi" clip-path="url(#clip0_2035_21)">
<path id="Vector" d="M11.4714 6.7751C12.0587 6.7751 12.6225 6.96302 13.1628 7.19795C14.266 7.69986 15.2568 8.41894 16.0759 9.31223C16.4752 9.75863 16.8276 10.2519 16.992 10.8157C17.039 10.9802 17.086 11.1211 17.086 11.2856C17.0625 11.6849 16.7806 11.9198 16.3578 11.9433C15.8644 11.9903 15.3476 11.8964 14.8778 11.7319C13.5387 11.2386 12.4111 10.4633 11.4714 9.42969C11.0956 9.03033 10.7902 8.58398 10.6022 8.09063C10.5524 7.96891 10.5131 7.84317 10.4848 7.71477C10.3908 7.19795 10.6727 6.82197 11.213 6.7751H11.4714ZM6.39714 6.28183V6.4463C6.42064 6.51676 6.46761 6.58725 6.56159 6.54026C6.60856 6.54026 6.63205 6.46979 6.65555 6.3993C6.65555 6.32884 6.65555 6.23486 6.63205 6.16439C6.60856 6.1174 6.53809 6.07043 6.4911 6.07043C6.46761 6.07043 6.42064 6.1409 6.39714 6.16439C6.37365 6.18789 6.39714 6.23483 6.39714 6.28183ZM16.5927 15.2087C16.6162 15.1852 16.6866 15.1617 16.6866 15.1147C16.6866 15.0677 16.6632 14.9973 16.6162 14.9973C16.4517 14.9268 16.3108 14.9033 16.1463 14.8798C16.0994 14.8563 16.0524 14.9033 16.0054 14.9503C16.0289 14.9973 16.0524 15.0677 16.0759 15.0677C16.2403 15.1383 16.4047 15.1618 16.5927 15.2087ZM18.1666 15.4201C18.4016 15.3966 18.613 15.3966 18.8244 15.3731C18.9184 15.3496 18.9889 15.3262 18.9654 15.2322C18.9419 15.1382 18.8714 15.1382 18.8009 15.1382C18.3545 15.2087 17.9081 15.1852 17.4854 15.1382C17.3697 15.1111 17.2517 15.0953 17.133 15.0912C17.086 15.0912 17.039 15.1617 16.992 15.1852C17.039 15.2322 17.0625 15.2792 17.086 15.3027C17.1095 15.3262 17.133 15.3262 17.18 15.3262C17.5089 15.3497 17.8612 15.3967 18.1666 15.4202V15.4201ZM6.65555 6.79867H6.58509C6.56159 6.86913 6.5146 6.91612 6.5146 6.96309C6.4911 7.03358 6.53809 7.10404 6.56159 7.17453C6.77301 7.94973 7.17239 8.63104 7.64221 9.26531C8.41741 10.299 9.35713 11.2151 10.3438 12.0609C10.4143 12.1078 10.4848 12.1313 10.5552 12.0609C10.6257 11.9669 10.5552 11.9199 10.4848 11.8494C9.82698 11.2856 9.16919 10.6748 8.58191 10.0171C8.13551 9.52372 7.7362 9.0069 7.4073 8.46667C7.1254 7.9967 6.89039 7.50342 6.74951 6.98658C6.74951 6.91612 6.67905 6.86913 6.65555 6.79867ZM9.16919 4.07358C8.80253 4.07064 8.43775 4.12615 8.08857 4.23803C7.78317 4.35549 7.50126 4.54341 7.33681 4.82531C7.07841 5.2247 7.05491 5.67102 7.1254 6.14087C7.26635 6.82214 7.54825 7.43294 7.92412 8.02024C8.65237 9.19485 9.56857 10.158 10.6022 11.0507C11.6124 11.9199 12.693 12.6717 13.8676 13.2825C14.8778 13.8228 15.9584 14.2926 17.1095 14.5041C17.7673 14.645 18.4486 14.7155 19.1063 14.5745C20.0225 14.4101 20.5159 13.7288 20.4454 12.8831C20.3765 12.3795 20.234 11.8888 20.0225 11.4266C19.5761 10.5104 18.9654 9.71169 18.2841 8.98341C17.4162 8.0488 16.447 7.21362 15.3945 6.49326C14.126 5.62406 12.7635 4.8959 11.307 4.4495C10.6022 4.23803 9.89745 4.09708 9.16919 4.07358ZM14.8778 20.2361C13.9616 20.2126 13.1863 20.0482 12.4111 19.7897C10.7431 19.2729 9.23968 18.4272 7.83016 17.3935C7.17239 16.9237 6.53809 16.4068 5.95079 15.8195C4.98762 14.9034 4.11839 13.8933 3.53111 12.6952C3.17874 12.0374 2.92031 11.3326 2.94381 10.5808C2.93989 10.1227 3.08867 9.67631 3.36666 9.31218C4.51777 7.69122 5.66889 6.09378 6.82 4.47282C7.19586 3.93251 7.7362 3.65061 8.3704 3.53315C9.2632 3.3687 10.1323 3.48616 10.978 3.69758C12.1761 4.00298 13.3036 4.51982 14.3609 5.1071C15.4246 5.70872 16.4243 6.41718 17.3444 7.2215C18.4485 8.16117 19.4116 9.19482 20.1634 10.4164C20.5393 11.0037 20.8212 11.6145 20.9856 12.2958C21.1031 12.8831 21.1501 13.4469 20.8682 13.9872C20.7272 14.316 20.5158 14.598 20.3044 14.88C19.2707 16.313 18.2371 17.746 17.2269 19.179C16.804 19.7898 16.1932 20.0718 15.4885 20.1657C15.2536 20.2127 15.0187 20.2127 14.8778 20.2361ZM2.6619 10.4634C2.6854 11.3561 2.87334 11.9904 3.17874 12.6012C3.50754 13.306 3.93047 13.9167 4.40034 14.5275C5.08161 15.3967 5.88035 16.172 6.72606 16.8767C7.64224 17.6285 8.60541 18.3097 9.63906 18.8735C11.0486 19.6487 12.5287 20.2596 14.173 20.4475C14.8073 20.5415 15.4416 20.518 16.0759 20.3065C16.5927 20.1656 17.0391 19.8837 17.368 19.4139C17.6264 19.0851 17.8848 18.7326 18.1197 18.3802C18.8949 17.323 19.6467 16.2658 20.3984 15.2088C20.6098 14.9269 20.8213 14.645 21.0092 14.3396C21.3616 13.7758 21.3851 13.1415 21.2911 12.4837C21.1737 11.638 20.7978 10.8862 20.3514 10.1815C19.7641 9.24182 19.0594 8.4431 18.2606 7.6679C17.3849 6.82012 16.4245 6.06441 15.3946 5.41262C14.0086 4.54341 12.5755 3.81518 10.9781 3.43929C10.1089 3.20438 9.23968 3.08692 8.34697 3.27484C7.66571 3.39244 7.07841 3.67422 6.65555 4.21454C6.5146 4.42595 6.37365 4.6139 6.23269 4.82531L3.20221 9.0539C2.84985 9.54722 2.6619 10.064 2.6619 10.4634ZM21.4555 13.165C21.4085 13.3529 21.3616 13.6583 21.2911 13.9402C21.1971 14.3161 20.9387 14.5745 20.7508 14.8799L20.046 15.8666C19.6232 16.4304 19.2238 16.9707 18.8244 17.5346C18.707 17.699 18.613 17.8869 18.472 18.0514C18.2371 18.3802 18.0022 18.7092 17.7673 19.0145C17.6028 19.2495 17.4385 19.4844 17.2505 19.6958C17.0625 19.9542 16.8041 20.1187 16.5222 20.2361C16.1698 20.4006 15.8175 20.518 15.4416 20.5649C15.215 20.5845 14.9876 20.5923 14.7603 20.5884C14.5559 20.5854 14.3519 20.5697 14.1495 20.5414C13.5857 20.4945 13.0219 20.4005 12.4815 20.1891C11.9647 20.0011 11.4244 19.8132 10.9311 19.6018C10.5317 19.4608 10.1794 19.2494 9.80349 19.0614C9.45109 18.8735 9.12222 18.6856 8.79333 18.4976C8.53492 18.3332 8.27651 18.1453 8.01813 17.9808C7.80669 17.8164 7.57173 17.6754 7.33684 17.4875C7.03146 17.2526 6.70257 16.9707 6.37367 16.7123L5.66879 16.078C5.45737 15.8431 5.22239 15.6082 5.01102 15.3732C4.72912 15.0444 4.42372 14.7155 4.16531 14.3631C3.85991 13.9402 3.55451 13.5174 3.2961 13.071C3.03769 12.6012 2.80276 12.1078 2.6853 11.5675C2.59134 11.0742 2.54435 10.6044 2.61484 10.1345C2.66181 9.68812 2.89674 9.3123 3.15515 8.95991C3.36657 8.65451 3.57801 8.34914 3.81292 8.04374C4.04785 7.71494 4.28277 7.38594 4.54117 7.05707C4.63513 6.89262 4.75261 6.72827 4.84657 6.58722C5.15197 6.16437 5.43388 5.76501 5.73937 5.36562C5.9038 5.10719 6.09174 4.87228 6.25619 4.63737C6.37365 4.49642 6.44413 4.35546 6.56159 4.21451C6.7965 3.90911 7.07841 3.62721 7.45439 3.46276C7.80676 3.27482 8.18262 3.18086 8.58201 3.13396C8.84042 3.08699 9.12232 3.08699 9.38073 3.08699C9.66263 3.11046 9.94453 3.13396 10.2029 3.18095C10.5553 3.25142 10.9077 3.29841 11.2601 3.41586C11.7534 3.55682 12.2233 3.72126 12.7166 3.90921C13.0777 4.05422 13.4305 4.21888 13.7736 4.40246C14.3844 4.73126 14.9952 5.06025 15.606 5.43611C16.0288 5.69452 16.4517 6.02342 16.851 6.32891C17.2269 6.63431 17.6262 6.93971 17.9787 7.29208C18.331 7.62088 18.6834 7.97334 19.0123 8.32574C19.2472 8.56065 19.4587 8.81906 19.6701 9.05399C19.8816 9.3359 20.0695 9.6177 20.2574 9.89961C20.3984 10.111 20.5628 10.3225 20.6803 10.5574C20.7978 10.7453 20.8682 10.9332 20.9622 11.1212C21.0092 11.2386 21.0562 11.3796 21.1266 11.497C21.3381 11.9903 21.4085 12.5072 21.4555 13.165ZM12.0117 0.244385C5.43398 0.244385 0.242126 5.57718 0.242126 11.9904C0.242126 18.5682 5.57493 23.76 12.0117 23.76C18.566 23.76 23.7578 18.4272 23.7578 11.9904C23.7578 5.5066 18.4955 0.244385 12.0117 0.244385Z" fill="#CB07C1"/>
</g>
<defs>
<clipPath id="clip0_2035_21">
<rect width="24" height="24" fill="white"/>
</clipPath>
</defs>
</svg>
