<svg width="24" height="24" viewBox="0 0 24 24" fill="none" xmlns="http://www.w3.org/2000/svg">
<g id="crypto / usdt" clip-path="url(#clip0_2035_3285)">
<path id="Vector" d="M18.4445 11.822C18.4445 12.0428 18.1549 12.2493 17.5781 12.4391C17.0013 12.6291 16.218 12.7786 15.2282 12.8902C14.2384 13.0017 13.1631 13.0563 12 13.0563C10.837 13.0563 9.76171 13.0017 8.7719 12.8902C7.78209 12.7786 6.99878 12.629 6.42199 12.4391C5.8452 12.2493 5.55561 12.0428 5.55561 11.822C5.55561 11.5372 6.01372 11.2832 6.93232 11.0625C7.85092 10.8417 9.01401 10.6993 10.4216 10.6352V12.4154C11.4338 12.4629 12.4476 12.4629 13.4598 12.4154V10.6352C14.9006 10.6993 16.0898 10.8417 17.0321 11.0625C17.9745 11.2832 18.4445 11.5372 18.4445 11.822H18.4445ZM0.119995 12C0.119995 9.85665 0.658795 7.85805 1.73407 6.00662C2.79508 4.21927 4.21927 2.79508 6.00662 1.73407C7.85805 0.658795 9.85903 0.119995 12.0119 0.119995C14.1482 0.119995 16.142 0.658795 17.9935 1.73407C19.7808 2.79508 21.205 4.21927 22.266 6.00662C23.3413 7.85805 23.8801 9.85665 23.8801 12C23.8801 14.1434 23.3413 16.142 22.266 17.9935C21.205 19.7808 19.7808 21.205 17.9935 22.266C16.142 23.3413 14.1434 23.8801 12 23.8801C9.85665 23.8801 7.85805 23.3413 6.00662 22.266C4.21927 21.205 2.79508 19.7808 1.73407 17.9935C0.658819 16.142 0.119995 14.1434 0.119995 12ZM4.72485 12.1543C4.72485 12.4558 4.96934 12.7359 5.46069 12.997C5.95202 13.2581 6.63088 13.4764 7.50199 13.6497C8.37312 13.823 9.34632 13.9417 10.4216 14.0057V19.2515H13.4598V14.0057C14.5517 13.9583 15.5415 13.8443 16.4269 13.6616C17.3122 13.4788 18.0101 13.2581 18.5157 12.997C19.0212 12.7359 19.2752 12.4558 19.2752 12.1543C19.2752 11.8529 19.0212 11.5728 18.5157 11.3117C18.0101 11.0506 17.3122 10.8322 16.4269 10.6589C15.5415 10.4856 14.5517 10.367 13.4598 10.3029V8.83123H17.59V5.79297H6.26771V8.83123H10.4216V10.3029C9.34632 10.367 8.37312 10.488 7.50199 10.6708C6.63088 10.8536 5.95202 11.0696 5.46067 11.3236C4.96934 11.5775 4.72483 11.8529 4.72483 12.1543H4.72485Z" fill="#27A07B"/>
</g>
<defs>
<clipPath id="clip0_2035_3285">
<rect width="24" height="24" fill="white"/>
</clipPath>
</defs>
</svg>
