<svg width="24" height="24" viewBox="0 0 24 24" fill="none" xmlns="http://www.w3.org/2000/svg">
<g id="crypto / the-graph" clip-path="url(#clip0_2035_2622)">
<path id="Vector" d="M12.0119 0.120117C5.36572 0.120117 0.119995 5.50826 0.119995 12.0002C0.119995 18.6345 5.50814 23.8802 12 23.8802C18.6344 23.8802 23.8801 18.492 23.8801 12.0002C23.8801 5.43705 18.5631 0.120117 12.0119 0.120117ZM5.60308 10.0894C5.60308 7.0986 8.00044 4.72497 10.9675 4.72497C13.9583 4.72497 16.3557 7.14609 16.3319 10.1369C16.3319 13.0802 13.9108 15.4775 10.9675 15.4538C8.0242 15.4775 5.57935 13.0564 5.60308 10.0894ZM7.38331 10.0894C7.35957 12.0358 8.97364 13.6498 10.92 13.6498C12.8902 13.6736 14.528 12.0595 14.528 10.0894C14.5517 8.11927 12.9139 6.5052 10.9675 6.5052C8.97364 6.5052 7.3596 8.14301 7.38331 10.0894ZM10.9675 19.9399C10.9675 19.7026 11.0387 19.4652 11.2286 19.2991C12.4154 18.1123 13.6022 16.9017 14.7891 15.7149C15.1451 15.3588 15.7148 15.3588 16.0708 15.7149C16.4506 16.0709 16.4506 16.6406 16.0708 17.0204C15.3113 17.78 14.528 18.5395 13.7684 19.3228C13.3411 19.7263 12.9376 20.1536 12.5104 20.5571C12.2018 20.8657 11.7745 20.9369 11.4185 20.747C11.1337 20.5571 10.9675 20.296 10.9675 19.94V19.9399ZM16.3319 5.60321C16.3319 5.10475 16.7354 4.70124 17.2339 4.72497C17.7324 4.72497 18.1359 5.10475 18.1359 5.60321C18.1359 6.10169 17.7324 6.52893 17.2339 6.5052C16.7354 6.5052 16.3319 6.10169 16.3319 5.60321Z" fill="#008AFB"/>
</g>
<defs>
<clipPath id="clip0_2035_2622">
<rect width="24" height="24" fill="white"/>
</clipPath>
</defs>
</svg>
