<svg width="24" height="24" viewBox="0 0 24 24" fill="none" xmlns="http://www.w3.org/2000/svg">
<g id="crypto / uniswap" clip-path="url(#clip0_15_116)">
<path id="Vector" d="M12.0119 0.119995C5.36573 0.119995 0.119999 5.50814 0.119999 12C0.119999 18.6344 5.50814 23.8801 12 23.8801C18.6344 23.8801 23.8801 18.4919 23.8801 12C23.8801 5.43693 18.5631 0.119995 12.0119 0.119995ZM4.72488 3.53803C4.98597 3.82286 5.24707 4.03651 5.46072 4.22637C6.55258 5.43693 7.62072 6.60002 8.61763 7.81058C9.09235 8.16662 9.37721 8.59387 9.80443 8.99738C10.0418 9.32971 10.0418 9.68575 9.80443 9.99432C9.56707 10.3029 9.16356 10.4216 8.78378 10.4928C8.38027 10.564 8.23785 10.6589 8.16665 11.0862C8.14289 11.6321 8.0717 12.1068 7.7394 12.6053C7.54949 12.8902 7.43081 13.2937 7.62072 13.626C7.7394 13.8871 8.00049 14.1245 8.14291 14.2668C8.28533 14.433 8.47521 14.528 8.61763 14.6466C8.94993 14.9789 8.99741 15.5011 8.6651 15.8809C8.19038 16.4269 7.57322 16.6168 6.86114 16.7354C6.81367 16.7354 6.67125 16.688 6.67125 16.688C6.43389 16.2607 6.17277 15.8334 5.95918 15.335C5.67432 14.6704 5.84047 14.0057 6.31522 13.4361C6.48137 13.1987 6.60005 13.0563 6.74246 12.8189C7.0985 12.2255 7.43081 11.7033 7.50202 10.9913C7.57322 10.6589 7.71566 10.4216 7.85808 10.1367C7.97676 9.89937 8.04797 9.75696 7.85808 9.49586C7.38336 8.59387 6.4339 6.93232 6.4339 6.76617C6.48137 6.81364 6.55258 6.93232 6.60005 6.9798C7.12224 7.81058 7.66819 8.64134 8.16665 9.42465C8.47521 9.80443 8.73631 9.89937 9.09235 9.75696C9.42468 9.68575 9.49589 9.49584 9.25853 9.25848C8.73631 8.73628 8.42774 8.16662 8.00049 7.59696C7.0273 6.29145 5.81673 5.17584 4.9385 3.87033C4.84356 3.72792 4.74861 3.65673 4.72488 3.53803ZM6.55257 14.433C6.55257 14.528 6.55258 14.6466 6.60005 14.7179C6.60005 14.7891 6.64752 14.8603 6.67125 14.9077C6.74246 14.8603 6.86114 14.7891 6.90862 14.7416C6.95609 14.528 6.81367 14.433 6.55257 14.433ZM8.61763 16.5455C8.6651 16.4031 8.73631 16.3557 8.78378 16.3082C9.54336 15.691 10.3266 15.2638 11.2998 15.335C12.3205 15.4062 13.0089 15.9521 13.1987 16.9491C13.2462 17.1864 13.2462 17.4713 13.2937 17.7798C13.5073 18.3495 13.7684 18.5157 14.3856 18.4207C14.528 18.4207 14.6704 18.3732 14.8365 18.3732C14.4568 18.848 13.6735 18.9429 13.2462 18.5157C13.0326 18.302 12.8902 17.946 12.7003 17.7086C12.4629 17.3288 12.3205 16.9491 12.0594 16.688C11.7746 16.4031 11.4897 16.3082 11.1337 16.4031C10.8251 16.4506 10.5877 16.7829 10.659 17.044C10.7064 17.4 11.0388 17.5662 11.3711 17.5662C11.5609 17.5187 11.7508 17.4 11.7508 17.1389C11.7508 16.9253 11.6322 16.7829 11.3711 16.7354C11.2049 16.7117 11.0862 16.7829 10.9675 17.044C10.8963 16.8304 10.9675 16.6168 11.2524 16.5693C11.4423 16.5455 11.7983 16.6168 11.8695 16.8304C12.0594 17.044 12.0594 17.4475 11.822 17.6374C11.5609 17.946 11.0862 17.9935 10.659 17.7798C10.4928 17.6374 10.2792 17.4713 10.113 17.3288C9.80445 16.9491 9.37718 16.688 8.87873 16.6168C8.78378 16.6168 8.66513 16.5693 8.61763 16.5455ZM9.306 7.26463C9.25853 6.76617 9.37721 6.7187 9.73325 6.88485C10.4691 7.07474 10.2792 7.26463 11.0388 9.32971C10.8963 9.37718 10.8251 9.42465 10.7064 9.37718C10.2792 9.28221 9.99434 8.97364 9.80446 8.64134C9.49589 8.21409 9.30597 7.73937 9.30597 7.26463H9.306ZM9.56709 6.4576C9.97061 6.29145 10.4691 6.4576 10.8963 6.7187C11.2524 6.97982 11.5609 7.26463 11.822 7.54946C11.9882 7.6919 12.1306 7.73937 12.3442 7.73937C13.4361 7.50201 14.3856 7.73937 15.2638 8.26156C15.4537 8.33277 15.5012 8.5464 15.5012 8.68881C15.5012 8.97364 15.4774 9.28221 15.4774 9.54333C15.4774 9.68575 15.5012 9.75693 15.5012 9.87564C15.8335 9.87564 16.1183 9.37716 16.1183 9.04485C16.5456 9.28221 17.0678 10.2792 16.9491 10.6589C16.9254 10.6589 16.9254 10.6115 16.8779 10.6115C16.5456 10.1605 16.0709 10.113 15.5724 10.0418C14.9552 9.94684 14.2906 9.87564 13.6497 9.75696C13.0801 9.66201 12.7003 9.18727 12.3205 8.73628C11.9882 8.33277 11.6796 7.92926 11.3711 7.54948C10.9201 7.00353 10.3979 6.64749 9.68577 6.4576H9.56709ZM9.73325 11.2523C9.68577 10.9438 9.92313 10.564 10.2554 10.5165H10.5877C10.8963 10.564 11.11 10.7776 11.0862 11.0862C11.0862 11.6321 10.659 11.6321 10.2792 11.6321C9.92314 11.6321 9.73325 11.5372 9.73325 11.2523V11.2523ZM10.1605 10.8488C10.2554 10.8726 10.3266 10.9913 10.4453 11.0862L10.7064 10.8488C10.5877 10.8013 10.4928 10.6589 10.4453 10.6589C10.3266 10.6589 10.2792 10.8013 10.1605 10.8488ZM10.7064 14.8603C10.8251 14.7416 10.8963 14.7179 10.9675 14.6466C11.4422 14.528 11.9407 14.433 12.4154 14.2668C12.6528 14.2194 12.7952 14.2194 13.0326 14.1482C13.8159 13.8871 14.1719 13.2699 13.9583 12.4391V12.1068C14.528 12.7003 14.4568 13.626 13.9345 14.1482C13.6022 14.433 13.2225 14.5992 12.8427 14.6466C12.1306 14.7416 11.4422 14.7891 10.8251 14.9077C10.7776 14.9077 10.7776 14.8603 10.7064 14.8603ZM12.9614 10.0418C12.9614 9.89937 13.08 9.80443 13.1987 9.89937C13.8396 10.3979 14.6229 10.3741 15.3825 10.5165C16.0708 10.6352 16.7592 10.8488 17.3051 11.4422C18.0409 12.1306 18.1596 13.08 17.5187 14.1482C17.3288 13.2937 16.6642 12.9614 15.9522 12.6765C15.3587 12.4392 14.7653 12.1068 14.1719 11.8457C13.7684 11.6321 13.2937 11.3236 13.1275 10.8488C13.0326 10.6115 13.0326 10.2791 12.9614 10.0418ZM14.5992 12.8189C14.6229 12.4391 14.6704 12.4391 15.0264 12.6053C15.4537 12.8902 15.9047 13.1513 16.4269 13.4361C18.0172 14.4805 17.59 16.688 16.2845 17.4475C16.2132 17.4713 16.1183 17.5187 15.9759 17.5662C15.9759 16.5693 16.4743 16.9728 15.9521 15.8334C15.6198 15.24 15.2638 14.7179 14.884 14.1482C14.6704 13.7447 14.528 13.2937 14.5992 12.8189ZM14.7179 7.54946V7.50199C14.884 7.54946 15.0739 7.59693 15.2638 7.6919C15.6673 7.78684 15.6198 7.45454 15.7148 6.81364C15.8097 7.26463 15.8097 7.59693 15.9521 7.92926C16.0946 8.26156 16.4506 8.47519 16.6642 8.80749V8.85261C16.6429 8.82648 16.0708 8.47519 16.0708 8.47519C15.9522 8.66508 15.7385 9.49586 15.7622 9.32971V8.80749C15.7622 8.30901 15.4537 7.90552 14.7179 7.54946Z" fill="#FE007A"/>
</g>
<defs>
<clipPath id="clip0_15_116">
<rect width="24" height="24" fill="white"/>
</clipPath>
</defs>
</svg>
