<svg width="24" height="24" viewBox="0 0 24 24" fill="none" xmlns="http://www.w3.org/2000/svg">
<g id="crypto / usd-coin" clip-path="url(#clip0_2035_3786)">
<path id="Vector" d="M12.0119 0.119995C18.5631 0.119995 23.8801 5.43696 23.8801 12C23.8801 18.4919 18.6343 23.8801 12 23.8801C5.50814 23.8801 0.119995 18.6343 0.119995 12C0.119995 5.50814 5.36572 0.119995 12.0119 0.119995ZM2.58856 11.9407C2.731 15.5486 4.58244 18.9904 8.87872 20.7231C9.30597 20.8655 9.66201 20.9605 9.66201 20.6045C9.66201 20.2721 9.63825 20.0823 9.63825 19.5363C9.63825 19.2515 9.28224 19.1803 8.94993 19.0616C6.00662 17.7561 3.75165 14.4805 4.32134 10.8488C4.74859 8.00047 6.45758 6.03033 9.06859 4.84353C9.5196 4.62991 9.73322 4.65364 9.73322 4.06022C9.73322 3.03957 9.75696 2.82595 8.8787 3.08702C5.12836 4.39255 2.70727 8.00047 2.58856 11.9407V11.9407ZM8.52266 14.3618C8.92617 15.691 10.0181 16.5218 11.2761 16.5218V17.6374C11.2761 17.946 11.3473 18.1834 11.7271 18.1834H12.2255C12.6765 18.1834 12.7952 18.0647 12.7952 17.6374V16.5218C13.3886 16.5218 14.4805 15.9996 14.9789 15.3587C16.1183 13.8396 15.4062 11.9407 13.8159 11.4185C10.8013 10.6352 10.4928 10.6115 10.3978 10.2079C10.2554 9.09232 10.7301 8.54642 12.0356 8.54642C12.6765 8.54642 13.3411 8.78378 13.5785 9.54333C13.6734 9.75693 13.8159 9.87564 13.982 9.87564H14.7653C15.0976 9.87564 15.2163 9.66201 15.0976 9.30597C14.9789 8.68881 14.5754 8.14288 13.8871 7.66816C13.2937 7.28836 12.7952 7.4308 12.7952 7.02727V6.1253C12.7952 5.84044 12.6765 5.7455 12.3679 5.7455H11.917C11.3473 5.7455 11.2761 5.84044 11.2761 6.24398V7.26463C10.6827 7.26463 9.87564 7.73935 9.42465 8.14288C8.40398 9.09232 8.49892 11.5609 10.3029 12.1781C13.175 12.8901 13.531 12.7003 13.8159 13.5785C13.8871 14.2669 13.5785 14.9077 12.9139 15.1214C11.7271 15.5249 10.1842 15.0739 10.1842 13.9583C10.1842 13.626 9.94684 13.5785 9.73322 13.5785H8.94991C8.57013 13.5785 8.40398 13.8871 8.52266 14.3618ZM14.3381 20.1772C14.3381 20.8181 14.5754 20.913 15.2163 20.7231C18.9429 19.3939 21.4352 15.8809 21.4352 11.9407C21.4352 7.8106 18.753 4.3451 14.8603 2.96839C14.5754 2.80224 14.3381 3.0396 14.3381 3.41937V4.06024C14.3381 4.53496 14.7653 4.60619 15.2163 4.84356C17.946 6.03036 20.1535 8.9974 19.7974 12.724C19.4177 15.9996 17.8273 17.6375 14.7653 19.1803C14.3143 19.3465 14.3381 19.655 14.3381 20.1773V20.1772Z" fill="#2775CA"/>
</g>
<defs>
<clipPath id="clip0_2035_3786">
<rect width="24" height="24" fill="white"/>
</clipPath>
</defs>
</svg>
