<svg width="25" height="24" viewBox="0 0 25 24" fill="none" xmlns="http://www.w3.org/2000/svg">
<g id="crypto / wrapped-bitcoin" clip-path="url(#clip0_2035_2610)">
<path id="Vector" d="M12.5119 0.120117C5.86572 0.120117 0.619995 5.50826 0.619995 12.0002C0.619995 18.6345 6.00814 23.8802 12.5 23.8802C19.1344 23.8802 24.3801 18.492 24.3801 12.0002C24.3801 5.43705 19.0631 0.120117 12.5119 0.120117ZM2.8512 11.8696C2.8512 6.60014 7.24243 2.20891 12.5356 2.28012C17.8051 2.28012 22.1014 6.5052 22.1014 11.8696C22.1014 17.234 17.8051 21.4591 12.417 21.554C7.14749 21.554 2.8512 17.1391 2.8512 11.8696ZM3.72946 11.8696C3.72946 16.7118 7.5985 20.5571 12.417 20.6758C17.2829 20.6758 21.2231 16.8068 21.2231 11.8696C21.2231 7.02739 17.3541 3.15837 12.5356 3.15837C7.59847 3.15837 3.72946 6.95618 3.72946 11.8696ZM4.25165 11.6085C4.25165 9.94697 4.86881 8.16674 6.10308 6.60014C6.26924 6.5052 6.3642 6.2441 6.6253 6.5052C6.88639 6.69509 6.98134 6.86124 6.72024 7.21728C5.55716 8.61773 5.03496 10.2793 5.03496 12.0595C5.15364 13.721 5.67584 15.2164 6.72024 16.5219C6.88639 16.7118 6.98134 16.878 6.72024 17.1391C6.45912 17.4002 6.36418 17.4002 6.10308 17.1391C4.86881 15.5487 4.25165 13.8872 4.25165 11.6085V11.6085ZM7.07628 17.6613C7.24243 17.5188 7.40859 17.329 7.78836 17.5901C8.64288 18.3734 9.78224 18.8956 11.0165 19.1804C13.3189 19.6077 15.3128 19.0854 17.093 17.6613C17.4253 17.4002 17.8051 17.5188 17.9713 17.8512C17.9713 17.9224 17.8763 18.1123 17.8051 18.1835C16.2148 19.4415 14.4583 20.1536 12.417 20.1536C10.4943 20.1536 8.73783 19.5127 7.24243 18.1835C7.07628 18.1123 6.81519 17.9224 7.07628 17.6613ZM7.14749 6.17289C6.88637 5.98301 6.88637 5.79309 7.14749 5.532C8.73783 4.32144 10.4943 3.60936 12.417 3.60936C14.4583 3.60936 16.2148 4.32144 17.6864 5.532C17.8763 5.72189 18.1374 5.79312 17.8763 6.05421C17.6864 6.2441 17.544 6.50517 17.1642 6.17289C16.2148 5.36585 15.1704 4.84365 13.9361 4.65377C11.6337 4.13155 9.61608 4.65377 7.78836 6.17289C7.59848 6.2441 7.40859 6.43399 7.14749 6.17289ZM8.99892 8.97377C8.99892 8.61773 9.18881 8.54652 9.44991 8.54652H10.4943C10.7554 8.54652 10.9453 8.42784 10.9453 8.09553V7.57332C10.8504 7.12236 11.0165 6.95618 11.3725 6.95618C11.8236 6.95618 11.8948 7.12233 11.8948 7.47837V8.16674C11.9897 8.28542 12.0847 8.42784 12.2745 8.42784C12.417 8.54652 12.6068 8.35663 12.6068 8.16672V7.4784C12.5356 7.02739 12.7967 7.02739 13.1291 7.02739C13.3902 6.95618 13.58 7.12233 13.58 7.47837C13.58 7.73949 13.4851 8.16674 13.6513 8.35663C13.8411 8.61775 14.1972 8.61775 14.5295 8.68893C15.9537 9.13992 16.2148 10.398 15.2416 11.7035C15.7638 11.8696 16.2148 12.2256 16.3097 12.8428C16.5708 13.9821 16.0249 15.0265 14.9805 15.4063C14.6482 15.4775 14.3633 15.5487 14.0073 15.5487C13.6513 15.5487 13.58 15.7386 13.58 16.0947V16.5219C13.58 17.0679 13.4851 17.1391 12.9391 17.1391C12.6781 17.1391 12.6068 16.9729 12.6068 16.7118V15.9285C12.5356 15.8098 12.3457 15.6674 12.2745 15.6674C12.0847 15.5487 11.8948 15.7386 11.8948 15.9997V16.7118C11.8948 17.0679 11.7286 17.1391 11.3725 17.1391C11.0165 17.1391 10.8504 16.9729 10.9453 16.6169V16.1896C10.9453 15.5487 10.9453 15.5487 10.3044 15.5487H9.52112C9.18881 15.5487 9.09387 15.4775 9.09387 15.0265C9.18881 14.5993 9.26002 14.3382 9.78224 14.3382C10.0433 14.4331 10.2332 14.2432 10.2332 13.9821V10.1131C10.2332 9.68587 9.97212 9.59093 9.52112 9.59093C8.99892 9.59093 8.99892 9.49598 8.99892 8.97377ZM11.8948 14.0771C11.8948 14.1483 12.0847 14.3382 12.1559 14.3382C12.7967 14.3382 13.3902 14.2432 13.9361 14.0771C14.1972 14.0771 14.3633 13.6261 14.3633 13.365C14.3633 13.1751 14.1972 12.8428 13.9361 12.6529C13.6513 12.5817 13.224 12.4867 12.8679 12.4867C11.7286 12.3918 11.8947 12.3918 11.8947 13.4362L11.8948 14.0771ZM11.8948 10.4692C11.8948 11.4424 11.8948 11.4424 12.7967 11.4424C13.58 11.3474 14.0073 11.0626 14.0073 10.5404C14.0073 10.0182 13.58 9.68587 12.7967 9.68587C11.8948 9.59093 11.8948 9.59093 11.8948 10.4692ZM18.1374 16.6169C18.9445 15.6674 19.4666 14.5043 19.7278 13.2938C20.1787 11.0626 19.6565 9.06871 18.2324 7.21728C18.0662 7.02739 17.8763 6.86124 18.1374 6.60014C18.3985 6.31531 18.5884 6.31531 18.7546 6.60014C20.0601 8.16674 20.701 9.94694 20.701 11.8696C20.701 13.8872 19.9889 15.6674 18.7546 17.1391C18.6834 17.329 18.4934 17.5188 18.3273 17.329C18.0662 17.1391 17.8763 16.9729 18.1374 16.6169Z" fill="#F09242"/>
</g>
<defs>
<clipPath id="clip0_2035_2610">
<rect width="24" height="24" fill="white" transform="translate(0.5)"/>
</clipPath>
</defs>
</svg>
