<svg width="24" height="24" viewBox="0 0 24 24" fill="none" xmlns="http://www.w3.org/2000/svg">
<g id="crypto / zcash" clip-path="url(#clip0_2035_2596)">
<path id="Vector" d="M17.9935 1.73419C19.7808 2.79521 21.1979 4.21939 22.2423 6.00674C23.3341 7.85817 23.8801 9.85915 23.8801 12.012C23.8801 14.1649 23.3341 16.1587 22.2423 17.9936C21.1979 19.7976 19.7808 21.2217 17.9935 22.2661C16.142 23.3414 14.1411 23.8802 11.9882 23.8802C9.83529 23.8802 7.84142 23.3414 6.00662 22.2661C4.21927 21.2217 2.79508 19.7976 1.73407 17.9936C0.658819 16.1588 0.119995 14.1649 0.119995 12.012C0.119995 9.85915 0.658795 7.85817 1.73407 6.00674C2.79508 4.21939 4.21927 2.79521 6.00662 1.73419C7.84142 0.658917 9.83529 0.120117 11.9882 0.120117C14.1411 0.120117 16.142 0.658917 17.9934 1.73419H17.9935ZM7.81056 16.5694L7.83429 17.2577H10.8251V19.2754H13.3174L13.1987 17.234H16.1895V14.7892H11.3472C11.8529 14.2361 12.2421 13.7994 12.5103 13.4837C13.6972 12.107 14.6466 10.9985 15.3587 10.1606L15.6198 9.87576C15.7931 9.70248 15.9118 9.57432 15.9759 9.49598C16.0874 9.33693 16.1586 9.19454 16.1895 9.06871C16.2536 8.7198 16.2678 8.16674 16.237 7.40719V6.69509H13.2225V4.70124H10.8251V6.74256H8.04791V9.18739H12.7002L11.5372 10.4929C10.3504 11.853 9.40092 12.9615 8.68881 13.816C8.62473 13.8801 8.52979 13.9822 8.40398 14.1246C8.24496 14.2979 8.13576 14.426 8.07168 14.5044C7.97673 14.6468 7.91263 14.7821 7.88179 14.9079C7.81771 15.2711 7.79395 15.8265 7.81058 16.5694H7.81056Z" fill="#F3B728"/>
</g>
<defs>
<clipPath id="clip0_2035_2596">
<rect width="24" height="24" fill="white"/>
</clipPath>
</defs>
</svg>
